# Blender 4.2.3 LTS
# www.blender.org
mtllib fence.mtl
o Fence_Type3_02_Model
v -0.136088 1.806267 -0.037867
v -0.136088 1.993132 -0.037867
v -0.136088 1.806267 -0.109755
v -0.136088 1.993132 -0.109755
v 3.082884 1.806267 -0.037867
v 3.082884 1.993132 -0.037867
v 3.082884 1.806267 -0.109755
v 3.082884 1.993132 -0.109755
v -0.136088 0.853388 -0.037867
v -0.136088 1.040254 -0.037867
v -0.136088 0.853388 -0.109755
v -0.136088 1.040254 -0.109755
v 3.082884 0.853388 -0.037867
v 3.082884 1.040254 -0.037867
v 3.082884 0.853388 -0.109755
v 3.082884 1.040254 -0.109755
v -0.137541 -0.000338 0.036346
v -0.137541 2.851523 0.036346
v -0.137541 -0.000338 -0.036346
v -0.137541 2.851523 -0.036346
v 0.158023 -0.000338 0.036346
v 0.158023 2.851523 0.036346
v 0.158023 -0.000338 -0.036346
v 0.158023 2.851523 -0.036346
v 0.187439 -0.000338 0.036346
v 0.187439 2.851523 0.036346
v 0.187439 -0.000338 -0.036346
v 0.187439 2.851523 -0.036346
v 0.483003 -0.000338 0.036346
v 0.483003 2.851523 0.036346
v 0.483003 -0.000338 -0.036346
v 0.483003 2.851523 -0.036346
v 0.512420 -0.000338 0.036346
v 0.512420 2.851523 0.036346
v 0.512420 -0.000338 -0.036346
v 0.512420 2.851523 -0.036346
v 0.807983 -0.000338 0.036346
v 0.807983 2.851523 0.036346
v 0.807983 -0.000338 -0.036346
v 0.807983 2.851523 -0.036346
v 0.837400 -0.000338 0.036346
v 0.837400 2.851523 0.036346
v 0.837400 -0.000338 -0.036346
v 0.837400 2.851523 -0.036346
v 1.132963 -0.000338 0.036346
v 1.132963 2.851523 0.036346
v 1.132963 -0.000338 -0.036346
v 1.132963 2.851523 -0.036346
v 1.162380 -0.000338 0.036346
v 1.162380 2.851523 0.036346
v 1.162380 -0.000338 -0.036346
v 1.162380 2.851523 -0.036346
v 1.457943 -0.000338 0.036346
v 1.457943 2.851523 0.036346
v 1.457943 -0.000338 -0.036346
v 1.457943 2.851523 -0.036346
v 1.487360 -0.000338 0.036346
v 1.487360 2.851523 0.036346
v 1.487360 -0.000338 -0.036346
v 1.487360 2.851523 -0.036346
v 1.782924 -0.000338 0.036346
v 1.782924 2.851523 0.036346
v 1.782924 -0.000338 -0.036346
v 1.782924 2.851523 -0.036346
v 1.812340 -0.000338 0.036346
v 1.812340 2.851523 0.036346
v 1.812340 -0.000338 -0.036346
v 1.812340 2.851523 -0.036346
v 2.107904 -0.000338 0.036346
v 2.107904 2.851523 0.036346
v 2.107904 -0.000338 -0.036346
v 2.107904 2.851523 -0.036346
v 0.010241 2.948318 -0.036346
v 0.010241 2.948318 0.036346
v 0.335221 2.948318 -0.036346
v 0.335221 2.948318 0.036346
v 0.660201 2.948318 -0.036346
v 0.660201 2.948318 0.036346
v 0.985182 2.948318 -0.036346
v 0.985182 2.948318 0.036346
v 1.310162 2.948318 -0.036346
v 1.310162 2.948318 0.036346
v 1.635142 2.948318 -0.036346
v 1.635142 2.948318 0.036346
v 1.960122 2.948318 -0.036346
v 1.960122 2.948318 0.036346
v 2.134911 -0.000338 0.036346
v 2.134911 2.851523 0.036346
v 2.134911 -0.000338 -0.036346
v 2.134911 2.851523 -0.036346
v 2.430475 -0.000338 0.036346
v 2.430475 2.851523 0.036346
v 2.430475 -0.000338 -0.036346
v 2.430475 2.851523 -0.036346
v 2.459892 -0.000338 0.036346
v 2.459892 2.851523 0.036346
v 2.459892 -0.000338 -0.036346
v 2.459892 2.851523 -0.036346
v 2.755455 -0.000338 0.036346
v 2.755455 2.851523 0.036346
v 2.755455 -0.000338 -0.036346
v 2.755455 2.851523 -0.036346
v 2.784872 -0.000338 0.036346
v 2.784872 2.851523 0.036346
v 2.784872 -0.000338 -0.036346
v 2.784872 2.851523 -0.036346
v 3.080435 -0.000338 0.036346
v 3.080435 2.851523 0.036346
v 3.080435 -0.000338 -0.036346
v 3.080435 2.851523 -0.036346
v 2.282693 2.948318 -0.036346
v 2.282693 2.948318 0.036346
v 2.607673 2.948318 -0.036346
v 2.607673 2.948318 0.036346
v 2.932653 2.948318 -0.036346
v 2.932653 2.948318 0.036346
vn -1.0000 -0.0000 -0.0000
vn -0.0000 -0.0000 -1.0000
vn 1.0000 -0.0000 -0.0000
vn -0.0000 -0.0000 1.0000
vn -0.0000 -1.0000 -0.0000
vn -0.0000 1.0000 -0.0000
vn -0.5479 0.8365 -0.0000
vn 0.5479 0.8365 -0.0000
vt 0.775762 0.753615
vt 0.854199 0.753615
vt 0.854199 0.832052
vt 0.775762 0.832052
s 0
usemtl restaurant
f 2/1/1 4/2/1 3/3/1 1/4/1
f 4/1/2 8/2/2 7/3/2 3/4/2
f 8/1/3 6/2/3 5/3/3 7/4/3
f 6/1/4 2/2/4 1/3/4 5/4/4
f 1/1/5 3/2/5 7/3/5 5/4/5
f 6/1/6 8/2/6 4/3/6 2/4/6
f 10/1/1 12/2/1 11/3/1 9/4/1
f 12/1/2 16/2/2 15/3/2 11/4/2
f 16/1/3 14/2/3 13/3/3 15/4/3
f 14/1/4 10/2/4 9/3/4 13/4/4
f 9/1/5 11/2/5 15/3/5 13/4/5
f 14/1/6 16/2/6 12/3/6 10/4/6
f 18/1/1 20/2/1 19/3/1 17/4/1
f 24/1/3 22/2/3 21/3/3 23/4/3
f 76/1/7 75/2/7 28/3/7 26/4/7
f 17/1/5 19/2/5 23/3/5 21/4/5
f 26/1/1 28/2/1 27/3/1 25/4/1
f 32/1/3 30/2/3 29/3/3 31/4/3
f 78/1/7 77/2/7 36/3/7 34/4/7
f 25/1/5 27/2/5 31/3/5 29/4/5
f 46/1/4 80/2/4 41/3/4 45/4/4
f 34/1/1 36/2/1 35/3/1 33/4/1
f 40/1/3 38/2/3 37/3/3 39/4/3
f 80/1/7 79/2/7 44/3/7 42/4/7
f 33/1/5 35/2/5 39/3/5 37/4/5
f 54/1/4 82/2/4 49/3/4 53/4/4
f 42/1/1 44/2/1 43/3/1 41/4/1
f 48/1/3 46/2/3 45/3/3 47/4/3
f 82/1/7 81/2/7 52/3/7 50/4/7
f 41/1/5 43/2/5 47/3/5 45/4/5
f 62/1/4 84/2/4 57/3/4 61/4/4
f 50/1/1 52/2/1 51/3/1 49/4/1
f 56/1/3 54/2/3 53/3/3 55/4/3
f 84/1/7 83/2/7 60/3/7 58/4/7
f 49/1/5 51/2/5 55/3/5 53/4/5
f 70/1/4 86/2/4 65/3/4 69/4/4
f 58/1/1 60/2/1 59/3/1 57/4/1
f 64/1/3 62/2/3 61/3/3 63/4/3
f 86/1/7 85/2/7 68/3/7 66/4/7
f 57/1/5 59/2/5 63/3/5 61/4/5
f 66/1/1 68/2/1 67/3/1 65/4/1
f 72/1/3 70/2/3 69/3/3 71/4/3
f 65/1/5 67/2/5 71/3/5 69/4/5
f 74/1/7 73/2/7 20/3/7 18/4/7
f 38/1/4 78/2/4 33/3/4 37/4/4
f 30/1/4 76/2/4 25/3/4 29/4/4
f 22/1/8 24/2/8 73/3/8 74/4/8
f 24/1/2 23/2/2 19/3/2 73/4/2
f 73/1/2 19/2/2 20/3/2
f 32/1/2 31/2/2 27/3/2 75/4/2
f 75/1/2 27/2/2 28/3/2
f 78/1/4 34/2/4 33/3/4
f 30/1/8 32/2/8 75/3/8 76/4/8
f 40/1/2 39/2/2 35/3/2 77/4/2
f 77/1/2 35/2/2 36/3/2
f 80/1/4 42/2/4 41/3/4
f 38/1/8 40/2/8 77/3/8 78/4/8
f 48/1/2 47/2/2 43/3/2 79/4/2
f 79/1/2 43/2/2 44/3/2
f 82/1/4 50/2/4 49/3/4
f 46/1/8 48/2/8 79/3/8 80/4/8
f 56/1/2 55/2/2 51/3/2 81/4/2
f 81/1/2 51/2/2 52/3/2
f 84/1/4 58/2/4 57/3/4
f 54/1/8 56/2/8 81/3/8 82/4/8
f 64/1/2 63/2/2 59/3/2 83/4/2
f 83/1/2 59/2/2 60/3/2
f 86/1/4 66/2/4 65/3/4
f 62/1/8 64/2/8 83/3/8 84/4/8
f 72/1/2 71/2/2 67/3/2 85/4/2
f 85/1/2 67/2/2 68/3/2
f 70/1/8 72/2/8 85/3/8 86/4/8
f 76/1/4 26/2/4 25/3/4
f 74/1/4 18/2/4 17/3/4
f 22/1/4 74/2/4 17/3/4 21/4/4
f 92/1/4 112/2/4 87/3/4 91/4/4
f 112/1/7 111/2/7 90/3/7 88/4/7
f 100/1/4 114/2/4 95/3/4 99/4/4
f 88/1/1 90/2/1 89/3/1 87/4/1
f 94/1/3 92/2/3 91/3/3 93/4/3
f 114/1/7 113/2/7 98/3/7 96/4/7
f 87/1/5 89/2/5 93/3/5 91/4/5
f 108/1/4 116/2/4 103/3/4 107/4/4
f 96/1/1 98/2/1 97/3/1 95/4/1
f 102/1/3 100/2/3 99/3/3 101/4/3
f 116/1/7 115/2/7 106/3/7 104/4/7
f 95/1/5 97/2/5 101/3/5 99/4/5
f 104/1/1 106/2/1 105/3/1 103/4/1
f 110/1/3 108/2/3 107/3/3 109/4/3
f 103/1/5 105/2/5 109/3/5 107/4/5
f 112/1/4 88/2/4 87/3/4
f 94/1/2 93/2/2 89/3/2 111/4/2
f 111/1/2 89/2/2 90/3/2
f 114/1/4 96/2/4 95/3/4
f 92/1/8 94/2/8 111/3/8 112/4/8
f 102/1/2 101/2/2 97/3/2 113/4/2
f 113/1/2 97/2/2 98/3/2
f 116/1/4 104/2/4 103/3/4
f 100/1/8 102/2/8 113/3/8 114/4/8
f 110/1/2 109/2/2 105/3/2 115/4/2
f 115/1/2 105/2/2 106/3/2
f 108/1/8 110/2/8 115/3/8 116/4/8
