# Blender 4.2.3 LTS
# www.blender.org
mtllib house1.mtl
o Cube.018
v -1.026761 -2.267843 -0.262668
v -1.026761 -0.093635 -0.262668
v -1.026761 -2.267843 -1.420382
v -1.026761 -0.093635 -1.420382
v -0.891003 -2.267843 -0.262668
v -0.891003 -0.093635 -0.262668
v -0.891003 -2.267843 -1.420382
v -0.891003 -0.093635 -1.420382
v -1.006543 -0.277501 2.366659
v -1.006543 1.712239 2.366659
v -1.006543 -2.267241 2.366659
v -1.006543 1.712239 2.093575
v -1.006543 -2.267241 2.093575
v -1.006543 -0.277501 2.093575
v -1.006543 -1.215845 2.366659
v -1.006543 -1.215845 2.093575
v -1.006543 0.914094 2.366659
v -1.006543 0.914094 2.093575
v -1.006543 -0.995695 2.366659
v -1.006543 -0.995695 2.093575
v -1.006543 0.694886 2.093575
v -0.743642 -1.215845 2.366659
v -1.006543 0.694886 2.366659
v -0.743642 -0.995695 2.366659
v -0.743642 0.694886 2.366659
v -0.743642 0.914094 2.366659
v -0.743642 1.717687 2.093575
v -0.743642 -2.267241 2.093575
v -0.743642 -0.277501 2.366659
v -0.743642 -2.267241 2.366659
v -0.743642 1.712239 2.366659
v -1.006543 -0.277502 -2.236747
v -1.006543 1.712238 -2.236747
v -1.006543 -2.267241 -2.236746
v -1.006543 -1.215845 -2.236747
v -1.006543 0.914094 -2.236747
v -1.006543 -0.995695 -2.236747
v -1.006543 -2.267241 -1.949033
v -1.006543 0.694885 -1.949033
v -1.006543 0.914094 -1.949033
v -1.006543 1.712238 -1.949033
v -1.006543 0.694885 -2.236747
v -1.006543 -0.995695 -1.949033
v -1.006543 -1.215845 -1.949033
v -1.006543 -0.277502 -1.949033
v -0.743642 -1.215845 -2.236747
v -0.743642 0.914094 -2.236747
v -0.743642 -0.995695 -2.236747
v -0.743642 0.694885 -2.236747
v -0.743642 -2.267241 -1.949033
v -0.743642 1.712238 -2.236747
v -0.743642 1.712238 -1.949033
v -0.743642 -2.267241 -2.236746
v -0.743642 -0.277502 -2.236747
v 3.199867 -0.277502 -2.236747
v 3.199867 1.712238 -2.236747
v 3.199867 -2.267241 -2.236746
v 3.199867 -1.215845 -2.236747
v 3.199867 0.914094 -2.236747
v 3.199867 -0.995695 -2.236747
v 3.199867 0.694885 -2.236747
v 3.199867 0.914094 -1.949033
v 3.199867 0.694885 -1.949033
v 3.199867 1.712238 -1.949033
v 3.199867 -2.267241 -1.949033
v 3.199867 -0.277502 -1.949033
v 3.199867 -1.215845 -1.949033
v 3.199867 -0.995695 -1.949033
v 2.936967 1.712238 -2.236747
v 2.936967 -2.267241 -2.236746
v 2.936967 -0.277502 -2.236747
v 2.936967 1.712238 -1.949033
v 2.936967 -1.215845 -2.236747
v 2.936967 0.914094 -2.236747
v 2.936967 -0.995695 -2.236747
v 2.936967 0.694885 -2.236747
v 2.936967 -2.267241 -1.949033
v -0.959596 1.488162 -2.190441
v -0.965304 -2.267241 -2.191615
v 3.156230 1.488162 -2.190441
v 3.158628 -2.267241 -2.191615
v 3.156231 1.488162 2.320355
v 3.158629 -2.267241 2.321528
v -0.959596 1.488162 2.320355
v -0.965304 -2.267241 2.321528
v -0.956742 3.486686 0.064958
v 3.455031 1.486686 -2.189852
v 3.454199 3.486686 0.064958
v 3.455031 1.486687 2.319767
v 3.155032 3.486686 0.064958
v -1.256742 1.486686 -2.189852
v -1.256742 3.486686 0.064958
v -1.256742 1.486687 2.319767
v 3.455031 1.846478 -2.189852
v 3.454199 3.846478 0.064958
v 3.455031 1.846478 2.319767
v -1.260741 1.846478 -2.189852
v -1.256742 3.846478 0.064958
v -1.260741 1.846478 2.319767
v 3.454817 1.846478 -2.189852
v -1.259709 3.846478 0.064958
v 3.455031 1.164973 -2.531917
v -1.256742 1.164973 -2.531917
v 3.455031 1.524764 -2.531917
v -1.256742 1.524764 -2.531917
v 3.454817 1.524764 -2.531917
v 3.453358 1.164973 -2.531917
v 3.455031 1.486687 2.319767
v 3.455031 1.486686 -2.189852
v -1.256742 1.486687 2.319767
v -1.256742 1.486686 -2.189852
v 3.455031 1.846478 2.319767
v 3.455031 1.846478 -2.189852
v 3.454817 1.846478 2.319767
v 3.455031 1.164973 2.661832
v -1.256742 1.164973 2.661832
v 3.455031 1.524764 2.661832
v -1.256742 1.524764 2.661832
v 3.454817 1.524764 2.661832
v 3.453358 1.164973 2.661832
v -0.986154 -0.388064 1.859622
v -0.986154 -1.066350 1.859622
v -0.986154 0.530291 1.859622
v -0.986154 -1.066350 0.255377
v -0.986154 -0.388064 0.255377
v -0.986154 0.530291 0.255377
v -1.076761 -2.266311 -0.088856
v -1.026761 -2.265859 -0.259346
v -1.076761 0.094251 -0.088856
v -1.026761 0.092439 -0.259346
v -0.891003 -2.266311 -0.088856
v -0.891003 -2.265859 -0.259346
v -0.891003 0.094251 -0.088856
v -0.891003 0.092439 -0.259346
v -1.026761 -2.265859 -0.178826
v -1.026761 0.092439 -0.178826
v -0.891003 0.092439 -0.178826
v -0.891003 -2.265859 -0.178826
v -1.076762 0.093421 -0.089613
v -1.026762 -0.086519 -0.090065
v -1.076762 0.093421 -1.593864
v -1.026762 -0.086519 -1.592053
v -0.891004 0.093421 -0.089613
v -0.891004 -0.086519 -0.090065
v -0.891004 0.093421 -1.593864
v -0.891004 -0.086519 -1.592053
v -1.026762 0.003451 -0.090065
v -1.026762 0.003451 -1.592053
v -0.891004 0.003451 -1.592053
v -0.891004 0.003451 -0.090065
v -1.076762 -2.266311 -1.592864
v -1.026762 -2.265859 -1.428342
v -1.076762 0.094251 -1.592864
v -1.026762 0.092439 -1.428342
v -0.891004 -2.266311 -1.592864
v -0.891004 -2.265859 -1.428342
v -0.891004 0.094251 -1.592864
v -0.891004 0.092439 -1.428342
v -1.026762 -2.265859 -1.508861
v -1.026762 0.092439 -1.508861
v -0.891004 0.092439 -1.508861
v -0.891004 -2.265859 -1.508861
v -1.076762 -2.265762 -0.089613
v -1.076762 -2.265762 -1.593864
v -0.891004 -2.265762 -0.089613
v -0.891004 -2.265762 -1.593864
v -1.026762 -2.175792 -0.090065
v -1.026762 -2.175791 -1.592053
v -0.891004 -2.175791 -1.592053
v -0.891004 -2.175792 -0.090065
v -1.076761 -1.246169 2.031234
v -1.026761 -1.245718 1.860745
v -1.076761 0.711614 2.031234
v -1.026761 0.709802 1.860745
v -0.891003 -1.246169 2.031234
v -0.891003 -1.245718 1.860745
v -0.891003 0.711614 2.031234
v -0.891003 0.709802 1.860745
v -1.026761 -1.245718 1.941264
v -1.026761 0.709802 1.941264
v -0.891003 0.709802 1.941264
v -0.891003 -1.245718 1.941264
v -1.076762 0.710783 2.030477
v -1.026762 0.530843 2.030025
v -1.076762 0.710783 0.090301
v -1.026762 0.530843 0.092113
v -0.891004 0.710783 2.030477
v -0.891004 0.530843 2.030025
v -0.891004 0.710783 0.090301
v -0.891004 0.530843 0.092113
v -1.026762 0.620813 2.030025
v -1.026762 0.620813 0.092113
v -0.891004 0.620813 0.092113
v -0.891004 0.620813 2.030025
v -1.076762 -1.246169 0.091301
v -1.026762 -1.245718 0.255824
v -1.076762 0.711614 0.091301
v -1.026762 0.709802 0.255824
v -0.891004 -1.246169 0.091301
v -0.891004 -1.245718 0.255824
v -0.891004 0.711614 0.091301
v -0.891004 0.709802 0.255824
v -1.026762 -1.245718 0.175304
v -1.026762 0.709802 0.175304
v -0.891004 0.709802 0.175304
v -0.891004 -1.245718 0.175304
v -1.076762 -1.245620 2.030477
v -1.026762 -1.065680 2.030025
v -1.076762 -1.245620 0.090301
v -1.026762 -1.065680 0.092113
v -0.891004 -1.245620 2.030477
v -0.891004 -1.065680 2.030025
v -0.891004 -1.245620 0.090301
v -0.891004 -1.065680 0.092113
v -1.026762 -1.155650 2.030025
v -1.026762 -1.155650 0.092113
v -0.891004 -1.155650 0.092113
v -0.891004 -1.155650 2.030025
v -1.120155 -1.271933 -0.347954
v -1.120155 -1.014292 -0.347954
v -1.120155 -1.271933 -0.596247
v -1.120155 -1.014292 -0.596247
v -0.961836 -1.271933 -0.347954
v -0.961836 -1.014292 -0.347954
v -0.961836 -1.271933 -0.596247
v -0.961836 -1.014292 -0.596247
v 0.096663 -2.267239 2.601418
v 0.540102 3.595472 2.416434
v 0.096663 -2.267239 1.558166
v 0.540102 3.595472 1.743150
v 2.096663 -2.267239 2.601418
v 1.653224 3.595472 2.416434
v 2.096663 -2.267239 1.558166
v 1.653224 3.595472 1.743150
v 0.096663 2.296582 2.601418
v 0.540102 2.996397 2.416434
v 0.540102 2.996397 1.743150
v 0.096663 2.296582 1.558166
v 1.653224 2.996397 1.743150
v 2.096663 2.296582 1.558166
v 1.653224 2.996397 2.416434
v 2.096663 2.296582 2.601418
vn -1.0000 -0.0000 -0.0000
vn -0.0000 -0.0000 -1.0000
vn 1.0000 -0.0000 -0.0000
vn -0.0000 -0.0000 1.0000
vn -0.0000 -1.0000 -0.0000
vn -0.0000 1.0000 -0.0000
vn 0.8070 0.4540 -0.3777
vn -0.2740 0.6897 -0.6703
vn 0.0166 0.9977 -0.0656
vn 0.9529 0.3032 0.0083
vn -0.0000 -0.7640 -0.6452
vn 0.8782 -0.3654 -0.3086
vn 0.9233 -0.3842 -0.0000
vn 0.9233 0.3842 -0.0000
vn -0.0000 0.7640 0.6452
vn 0.8782 0.3654 0.3086
vn 0.8782 -0.3654 0.3086
vn -0.0000 -0.7640 0.6452
vn -0.9233 -0.3842 -0.0000
vn -0.8782 -0.3654 0.3086
vn -0.9233 0.3842 -0.0000
vn -0.8782 0.3654 0.3086
vn 1.0000 -0.0014 -0.0000
vn -0.0000 -0.7484 -0.6632
vn -0.0000 -0.7484 0.6632
vn -0.0025 -0.7483 -0.6634
vn -1.0000 -0.0006 -0.0000
vn -0.0025 -0.7483 0.6634
vn 0.0025 -0.7483 -0.6634
vn 0.0025 -0.7483 0.6634
vn 1.0000 -0.0000 -0.0004
vn 1.0000 -0.0000 0.0004
vn -1.0000 -0.0056 -0.0058
vn -1.0000 -0.0056 0.0058
vn -0.0000 0.7481 0.6636
vn -0.0000 0.7481 -0.6636
vn -0.0000 0.7284 -0.6851
vn -1.0000 -0.0056 -0.0006
vn -0.0000 -0.7284 0.6851
vn -0.0000 -0.0003 -1.0000
vn -0.0000 -0.0003 1.0000
vn 1.0000 -0.0015 -0.0000
vn -0.0000 0.7284 0.6851
vn -1.0000 -0.0056 0.0006
vn -0.0000 -0.7284 -0.6851
vn -0.8782 0.3654 -0.3086
vn -0.9434 -0.0000 -0.3316
vn -0.9434 -0.0000 0.3316
vn -0.8782 -0.3654 -0.3086
vn -0.0000 1.0000 0.0050
vn -0.0000 -0.9998 0.0201
vn 0.8741 -0.0000 0.4858
vn -0.0000 0.0050 -1.0000
vn -0.0000 0.0201 0.9998
vn 0.8741 0.4858 -0.0000
vn -0.0000 -1.0000 0.0054
vn -0.0000 0.9998 0.0216
vn -0.8593 -0.0000 0.5115
vn -0.0000 0.0050 1.0000
vn -0.0000 0.0201 -0.9998
vn -0.8741 0.4858 -0.0000
vn -0.0000 0.2556 0.9668
vn 0.8447 0.5352 -0.0000
vn -0.0000 0.2556 -0.9668
vn -0.8447 0.5352 -0.0000
vt 0.433644 0.613409
vt 0.455720 0.613020
vt 0.456109 0.635095
vt 0.434033 0.635484
vt 0.456498 0.657171
vt 0.434422 0.657560
vt 0.456886 0.679246
vt 0.434811 0.679635
vt 0.457275 0.701321
vt 0.435200 0.701710
vt 0.412347 0.657948
vt 0.412736 0.680024
vt 0.478573 0.656782
vt 0.478962 0.678857
vt 0.748100 0.899552
vt 0.748322 0.895539
vt 0.826584 0.899019
vt 0.814997 0.898378
vt 0.790599 0.897878
vt 0.806287 0.898746
vt 0.830135 0.899215
vt 0.829913 0.903228
vt 0.826362 0.903032
vt 0.847098 0.900154
vt 0.774185 0.896970
vt 0.787062 0.897682
vt 0.846876 0.904166
vt 0.814775 0.902391
vt 0.790377 0.901890
vt 0.786840 0.901695
vt 0.773963 0.900983
vt 0.872962 0.901584
vt 0.872740 0.905597
vt 0.806065 0.902758
vt 0.795647 0.891893
vt 0.804610 0.892411
vt 0.823486 0.892845
vt 0.811350 0.892143
vt 0.793079 0.888630
vt 0.779957 0.887872
vt 0.779777 0.890976
vt 0.792899 0.891734
vt 0.823665 0.889741
vt 0.811529 0.889039
vt 0.795826 0.888789
vt 0.836363 0.890474
vt 0.826401 0.889899
vt 0.826222 0.893003
vt 0.836183 0.893578
vt 0.804790 0.889307
vt 0.856370 0.891631
vt 0.856191 0.894735
vt 0.856370 0.891631
vt 0.759769 0.889819
vt 0.759949 0.886715
vt 0.822162 0.884277
vt 0.813806 0.884428
vt 0.836957 0.884009
vt 0.824724 0.884230
vt 0.793705 0.885402
vt 0.796255 0.885356
vt 0.784418 0.885570
vt 0.855557 0.880777
vt 0.855610 0.883671
vt 0.807569 0.885151
vt 0.836905 0.881115
vt 0.824671 0.881336
vt 0.807517 0.882258
vt 0.796203 0.882462
vt 0.822110 0.881383
vt 0.793652 0.882508
vt 0.784366 0.882676
vt 0.813753 0.881534
vt 0.765765 0.885908
vt 0.765713 0.883014
vt 0.610071 0.657712
vt 0.598662 0.655031
vt 0.611360 0.656572
vt 0.576686 0.658572
vt 0.559418 0.654426
vt 0.558008 0.655234
vt 0.870089 0.883371
vt 0.870049 0.886049
vt 0.841663 0.885632
vt 0.841702 0.882962
vt 0.824396 0.905659
vt 0.824433 0.903052
vt 0.852150 0.903444
vt 0.852113 0.906058
vt 0.822347 0.895243
vt 0.850063 0.895635
vt 0.850027 0.898249
vt 0.822310 0.897857
vt 0.778956 0.907424
vt 0.802387 0.861994
vt 0.806672 0.864204
vt 0.783241 0.909634
vt 0.839490 0.880395
vt 0.867877 0.880804
vt 0.849881 0.908502
vt 0.822165 0.908102
vt 0.824578 0.892799
vt 0.852294 0.893191
vt 0.773043 0.908930
vt 0.796474 0.863500
vt 0.840085 0.838322
vt 0.868472 0.838715
vt 0.796591 0.837543
vt 0.778966 0.863399
vt 0.779084 0.837467
vt 0.799290 0.837608
vt 0.798993 0.858830
vt 0.800537 0.857741
vt 0.856431 0.905994
vt 0.854200 0.908438
vt 0.801324 0.837695
vt 0.803864 0.837841
vt 0.544792 0.605509
vt 0.808819 0.882504
vt 0.837206 0.882899
vt 0.837169 0.885569
vt 0.808782 0.885182
vt 0.854305 0.900962
vt 0.826589 0.900569
vt 0.826627 0.897955
vt 0.854343 0.898355
vt 0.822418 0.890255
vt 0.822455 0.887641
vt 0.850171 0.888033
vt 0.850134 0.890648
vt 0.778579 0.907422
vt 0.774274 0.909593
vt 0.751254 0.863953
vt 0.755559 0.861782
vt 0.811102 0.880000
vt 0.856466 0.903468
vt 0.828749 0.903076
vt 0.852294 0.893154
vt 0.824578 0.892762
vt 0.761459 0.863341
vt 0.784478 0.908982
vt 0.811698 0.837911
vt 0.761576 0.837385
vt 0.758982 0.858650
vt 0.758877 0.837425
vt 0.757448 0.857546
vt 0.824435 0.902889
vt 0.822274 0.900382
vt 0.756842 0.837494
vt 0.754301 0.837617
vt 0.001853 0.245682
vt 0.001853 0.158470
vt 0.248422 0.157494
vt 0.248422 0.244706
vt 0.001853 0.040390
vt 0.248422 0.039414
vt 0.813852 0.844912
vt 0.831616 0.844912
vt 0.831616 0.880438
vt 0.813852 0.880438
vt 0.831616 0.915965
vt 0.813852 0.915965
vt 0.831616 0.951492
vt 0.813852 0.951492
vt 0.831616 0.987019
vt 0.813852 0.987019
vt 0.760562 0.915965
vt 0.796089 0.915965
vt 0.796089 0.951492
vt 0.760562 0.951492
vt 0.867143 0.915965
vt 0.867143 0.951492
vt 0.796089 0.987019
vt 0.796089 0.880438
vt 0.796089 0.844912
vt 0.167588 0.776013
vt 0.207373 0.776013
vt 0.207373 0.815798
vt 0.167588 0.815798
vt 0.207373 0.855583
vt 0.167588 0.855583
vt 0.207373 0.895368
vt 0.167588 0.895368
vt 0.207373 0.935153
vt 0.167588 0.935153
vt 0.127803 0.855583
vt 0.127803 0.895368
vt 0.247158 0.855583
vt 0.247158 0.895368
vt 0.945071 0.527804
vt 0.958704 0.527804
vt 0.958704 0.568702
vt 0.945071 0.568702
vt 0.958704 0.609599
vt 0.945071 0.609599
vt 0.958704 0.650497
vt 0.945071 0.650497
vt 0.958704 0.691395
vt 0.945071 0.691395
vt 0.876908 0.609599
vt 0.917806 0.609599
vt 0.917806 0.650497
vt 0.876908 0.650497
vt 0.999602 0.609599
vt 0.999602 0.650497
vt 0.931439 0.650497
vt 0.931439 0.691395
vt 0.917806 0.691395
vt 0.931439 0.609599
vt 0.917806 0.568702
vt 0.931439 0.568702
vt 0.917806 0.527804
vt 0.931439 0.527804
s 0
usemtl restaurant.002
f 1/1/1 2/2/1 4/3/1 3/4/1
f 3/4/2 4/3/2 8/5/2 7/6/2
f 7/6/3 8/5/3 6/7/3 5/8/3
f 5/8/4 6/7/4 2/9/4 1/10/4
f 3/11/5 7/6/5 5/8/5 1/12/5
f 8/5/6 4/13/6 2/14/6 6/7/6
s 1
f 27/15/7 12/16/8 10/16/9 31/15/10
f 19/17/1 9/18/1 14/18/1 20/17/1
f 23/19/1 21/19/1 14/20/1 9/20/1
f 19/17/4 15/21/4 22/22/4 24/23/4
f 11/24/1 15/21/1 16/21/1 13/24/1
f 10/25/1 12/25/1 18/26/1 17/26/1
f 15/21/1 19/17/1 20/17/1 16/21/1
f 17/26/1 18/26/1 21/19/1 23/19/1
f 15/21/4 11/24/4 30/27/4 22/22/4
f 9/18/4 19/17/4 24/23/4 29/28/4
f 17/26/4 23/19/4 25/29/4 26/30/4
f 10/25/4 17/26/4 26/30/4 31/31/4
f 13/32/11 28/33/12 30/33/13 11/32/5
f 23/19/4 9/20/4 29/34/4 25/29/4
f 28/33/12 13/32/11 12/16/8 27/15/7
f 31/15/10 30/33/13 28/33/12 27/15/7
f 43/35/1 45/36/1 32/36/1 37/35/1
f 39/37/1 42/37/1 32/38/1 45/38/1
f 46/39/2 53/40/2 34/41/2 35/42/2
f 49/43/2 54/44/2 32/38/2 42/37/2
f 48/45/2 46/39/2 35/42/2 37/35/2
f 38/41/1 44/42/1 35/42/1 34/41/1
f 51/46/2 47/47/2 36/48/2 33/49/2
f 41/49/1 33/49/1 36/48/1 40/48/1
f 54/50/2 48/45/2 37/35/2 32/36/2
f 44/42/1 43/35/1 37/35/1 35/42/1
f 47/47/2 49/43/2 42/37/2 36/48/2
f 51/51/14 33/52/6 41/52/15 52/53/16
f 40/48/1 36/48/1 42/37/1 39/37/1
f 34/54/5 53/55/13 50/55/17 38/54/18
f 50/55/17 53/55/13 51/51/14 52/53/16
f 50/55/17 52/53/16 41/52/15 38/54/18
f 68/56/3 60/56/3 55/57/3 66/57/3
f 65/58/3 57/58/3 58/59/3 67/59/3
f 67/59/3 58/59/3 60/56/3 68/56/3
f 59/60/3 62/60/3 63/61/3 61/61/3
f 56/62/3 64/62/3 62/60/3 59/60/3
f 70/63/19 57/64/5 65/64/18 77/63/20
f 61/61/3 63/61/3 66/65/3 55/65/3
f 58/59/2 57/58/2 70/66/2 73/67/2
f 61/61/2 55/65/2 71/68/2 76/69/2
f 60/56/2 58/59/2 73/67/2 75/70/2
f 56/62/2 59/60/2 74/71/2 69/72/2
f 55/57/2 60/56/2 75/70/2 71/73/2
f 59/60/2 61/61/2 76/69/2 74/71/2
f 56/74/6 69/75/21 72/75/22 64/74/15
f 72/75/22 69/75/21 70/63/19 77/63/20
f 72/75/22 77/63/20 65/64/18 64/74/15
s 0
f 78/76/23 86/77/23 84/78/23
f 84/78/24 86/77/24 90/79/24 82/80/24
f 86/77/25 78/76/25 80/81/25 90/79/25
f 89/82/26 82/83/26 90/84/26 88/85/26
f 80/81/27 82/80/27 90/79/27
f 88/86/28 90/87/28 80/88/28 87/89/28
f 93/90/29 92/91/29 86/92/29 84/93/29
f 92/94/30 91/95/30 78/96/30 86/97/30
f 89/82/31 88/85/31 95/98/31 96/99/31
f 88/86/32 87/89/32 94/100/32 95/101/32
f 92/91/33 93/90/33 99/102/33 98/103/33
f 91/95/34 92/94/34 98/104/34 97/105/34
f 101/106/35 99/107/35 96/99/35 95/98/35
f 100/108/36 97/105/36 98/109/36 95/110/36
f 97/105/37 100/108/37 106/111/37 105/112/37
f 91/95/38 97/105/38 105/112/38 103/113/38
f 94/100/3 87/89/3 102/114/3 104/115/3
f 107/116/2 103/113/2 105/112/2 106/111/2
f 103/113/39 107/116/39 87/117/39 91/95/39
f 84/78/40 82/80/40 83/118/40 85/118/40
f 81/118/41 80/81/41 78/76/41 79/118/41
f 85/118/42 79/118/42 78/76/42 84/78/42
f 109/119/28 88/120/28 90/121/28 80/122/28
f 81/118/27 83/118/27 82/80/27 80/81/27
f 88/123/26 108/124/26 82/125/26 90/126/26
f 111/127/30 78/128/30 86/129/30 92/130/30
f 92/131/29 86/132/29 84/133/29 110/134/29
f 109/119/32 113/135/32 95/98/32 88/120/32
f 88/123/31 95/136/31 112/137/31 108/124/31
f 92/130/34 98/138/34 97/139/34 111/127/34
f 110/134/33 99/140/33 98/141/33 92/131/33
f 101/106/36 95/98/36 113/135/36 97/142/36
f 114/143/35 95/110/35 98/109/35 99/140/35
f 99/140/43 118/144/43 119/145/43 114/143/43
f 110/134/44 116/146/44 118/144/44 99/140/44
f 112/137/3 117/147/3 115/148/3 108/124/3
f 120/149/4 119/145/4 118/144/4 116/146/4
f 116/146/45 110/134/45 108/150/45 120/149/45
f 79/118/6 85/118/6 83/118/6 81/118/6
s 1
f 122/151/46 121/152/47 125/153/48 124/154/22
f 123/155/49 126/156/20 125/153/48 121/152/47
s 0
f 135/157/3 128/158/3 130/159/3 136/160/3
f 136/160/5 130/159/5 134/161/5 137/162/5
f 137/162/1 134/161/1 132/163/1 138/164/1
f 138/164/6 132/163/6 128/165/6 135/166/6
f 129/167/2 133/168/2 131/169/2 127/170/2
f 134/161/4 130/171/4 128/172/4 132/163/4
f 131/169/50 138/164/50 135/166/50 127/173/50
f 133/168/1 137/162/1 138/164/1 131/169/1
f 129/174/51 136/160/51 137/162/51 133/168/51
f 127/175/52 135/157/52 136/160/52 129/174/52
f 147/157/3 140/158/3 142/159/3 148/160/3
f 148/160/4 142/159/4 146/161/4 149/162/4
f 149/162/1 146/161/1 144/163/1 150/164/1
f 150/164/2 144/163/2 140/165/2 147/166/2
f 141/167/5 145/168/5 143/169/5 139/170/5
f 146/161/6 142/171/6 140/172/6 144/163/6
f 143/169/53 150/164/53 147/166/53 139/173/53
f 145/168/1 149/162/1 150/164/1 143/169/1
f 141/174/54 148/160/54 149/162/54 145/168/54
f 139/175/55 147/157/55 148/160/55 141/174/55
f 159/157/1 152/158/1 154/159/1 160/160/1
f 160/160/6 154/159/6 158/161/6 161/162/6
f 161/162/3 158/161/3 156/163/3 162/164/3
f 162/164/5 156/163/5 152/165/5 159/166/5
f 153/167/2 157/168/2 155/169/2 151/170/2
f 158/161/4 154/171/4 152/172/4 156/163/4
f 155/169/56 162/164/56 159/166/56 151/173/56
f 157/168/3 161/162/3 162/164/3 155/169/3
f 153/174/57 160/160/57 161/162/57 157/168/57
f 151/175/58 159/157/58 160/160/58 153/174/58
f 164/167/5 166/168/5 165/169/5 163/170/5
f 165/169/59 170/164/59 167/166/59 163/173/59
f 166/168/3 169/162/3 170/164/3 165/169/3
f 164/174/60 168/160/60 169/162/60 166/168/60
f 163/175/61 167/157/61 168/160/61 164/174/61
f 179/157/3 172/158/3 174/159/3 180/160/3
f 180/160/5 174/159/5 178/161/5 181/162/5
f 181/162/1 178/161/1 176/163/1 182/164/1
f 182/164/6 176/163/6 172/165/6 179/166/6
f 173/167/2 177/168/2 175/169/2 171/170/2
f 178/161/4 174/171/4 172/172/4 176/163/4
f 175/169/50 182/164/50 179/166/50 171/173/50
f 177/168/1 181/162/1 182/164/1 175/169/1
f 173/174/51 180/160/51 181/162/51 177/168/51
f 171/175/52 179/157/52 180/160/52 173/174/52
f 191/157/3 184/158/3 186/159/3 192/160/3
f 192/160/4 186/159/4 190/161/4 193/162/4
f 193/162/1 190/161/1 188/163/1 194/164/1
f 194/164/2 188/163/2 184/165/2 191/166/2
f 185/167/5 189/168/5 187/169/5 183/170/5
f 190/161/6 186/171/6 184/172/6 188/163/6
f 187/169/53 194/164/53 191/166/53 183/173/53
f 189/168/1 193/162/1 194/164/1 187/169/1
f 185/174/54 192/160/54 193/162/54 189/168/54
f 183/175/55 191/157/55 192/160/55 185/174/55
f 203/157/1 196/158/1 198/159/1 204/160/1
f 204/160/6 198/159/6 202/161/6 205/162/6
f 205/162/3 202/161/3 200/163/3 206/164/3
f 206/164/5 200/163/5 196/165/5 203/166/5
f 197/167/2 201/168/2 199/169/2 195/170/2
f 202/161/4 198/171/4 196/172/4 200/163/4
f 199/169/56 206/164/56 203/166/56 195/173/56
f 201/168/3 205/162/3 206/164/3 199/169/3
f 197/174/57 204/160/57 205/162/57 201/168/57
f 195/175/58 203/157/58 204/160/58 197/174/58
f 215/157/1 208/158/1 210/159/1 216/160/1
f 216/160/2 210/159/2 214/161/2 217/162/2
f 217/162/3 214/161/3 212/163/3 218/164/3
f 218/164/4 212/163/4 208/165/4 215/166/4
f 209/167/5 213/168/5 211/169/5 207/170/5
f 214/161/6 210/171/6 208/172/6 212/163/6
f 211/169/59 218/164/59 215/166/59 207/173/59
f 213/168/3 217/162/3 218/164/3 211/169/3
f 209/174/60 216/160/60 217/162/60 213/168/60
f 207/175/61 215/157/61 216/160/61 209/174/61
f 219/176/1 220/177/1 222/178/1 221/179/1
f 221/179/2 222/178/2 226/180/2 225/181/2
f 225/181/3 226/180/3 224/182/3 223/183/3
f 223/183/4 224/182/4 220/184/4 219/185/4
f 221/186/5 225/181/5 223/183/5 219/187/5
f 226/180/6 222/188/6 220/189/6 224/182/6
f 236/190/1 228/191/1 230/192/1 237/193/1
f 237/193/2 230/192/2 234/194/2 239/195/2
f 239/195/3 234/194/3 232/196/3 241/197/3
f 241/197/4 232/196/4 228/198/4 236/199/4
f 229/200/5 233/201/5 231/202/5 227/203/5
f 234/194/6 230/204/6 228/205/6 232/196/6
f 231/202/4 242/206/4 235/207/4 227/208/4
f 242/206/62 241/197/62 236/199/62 235/207/62
f 233/201/3 240/209/3 242/206/3 231/202/3
f 240/209/63 239/195/63 241/197/63 242/206/63
f 229/210/2 238/211/2 240/209/2 233/201/2
f 238/211/64 237/193/64 239/195/64 240/209/64
f 227/212/1 235/213/1 238/211/1 229/210/1
f 235/213/65 236/190/65 237/193/65 238/211/65
l 88 86
