# Blender 4.5.0
# www.blender.org
mtllib lava-rocks(2).mtl
o Plane.002
v -0.079998 -0.200000 -1.120296
v 0.850963 -0.200000 0.161770
v 1.154190 -0.200000 -0.035062
v 0.776486 -0.200000 -1.083058
v 0.813724 -0.200000 0.262845
v 0.201950 -0.200000 0.257526
v 0.042357 -0.200000 0.151130
v -0.276830 -0.200000 0.151130
v -0.835406 -0.200000 0.539474
v -1.191831 -0.200000 0.534154
v -1.404622 -0.200000 0.220287
v -0.071535 0.200000 -1.007904
v 0.766330 0.200000 0.145955
v 1.039235 0.200000 -0.031193
v 0.699301 0.200000 -0.974390
v 0.732815 0.200000 0.236923
v 0.217684 0.200000 0.214403
v 0.097621 0.200000 0.114214
v -0.298853 0.200000 0.114214
v -0.835632 0.200000 0.472590
v -1.134248 0.200000 0.476668
v -1.263696 0.200000 0.198621
vn -0.8370 0.2556 0.4839
vn -0.0000 0.0919 0.9958
vn 0.9074 0.2639 -0.3270
vn -0.6958 0.2079 -0.6875
vn -0.0246 0.0840 0.9962
vn 0.5591 0.1220 0.8201
vn 0.0418 0.2694 -0.9621
vn 0.9179 0.2076 0.3382
vn -0.0019 0.1537 0.9881
vn -0.5890 0.1320 0.7973
vn 0.5386 0.1468 0.8297
vn -0.0000 1.0000 -0.0000
vn -0.0000 -1.0000 -0.0000
vt 0.179823 0.865009
s 0
usemtl Material
f 10/1/1 21/1/1 22/1/1 11/1/1
f 7/1/2 18/1/2 19/1/2 8/1/2
f 4/1/3 15/1/3 14/1/3 3/1/3
f 11/1/4 22/1/4 12/1/4 1/1/4
f 5/1/5 16/1/5 17/1/5 6/1/5
f 8/1/6 19/1/6 20/1/6 9/1/6
f 1/1/7 12/1/7 15/1/7 4/1/7
f 2/1/8 13/1/8 16/1/8 5/1/8
f 9/1/9 20/1/9 21/1/9 10/1/9
f 6/1/10 17/1/10 18/1/10 7/1/10
f 3/1/11 14/1/11 13/1/11 2/1/11
f 19/1/12 22/1/12 21/1/12 20/1/12
f 12/1/12 22/1/12 19/1/12 15/1/12
f 17/1/12 16/1/12 13/1/12 18/1/12
f 14/1/12 15/1/12 19/1/12 18/1/12 13/1/12
f 8/1/13 9/1/13 10/1/13 11/1/13
f 6/1/13 7/1/13 2/1/13 5/1/13
f 1/1/13 4/1/13 8/1/13 11/1/13
f 3/1/13 2/1/13 7/1/13 8/1/13 4/1/13
