# Blender 4.2.3 LTS
# www.blender.org
mtllib pantry-leftdoor.mtl
o kitchencabinet_leftside
v -0.816219 0.061778 0.544657
v 0.044303 0.062145 0.695596
v 0.044303 2.438288 0.695596
v 0.044303 0.062145 0.535596
v 0.044303 2.438288 0.535596
v -0.815697 0.006886 0.695596
v -0.815697 0.062145 0.735596
v -0.855697 0.062145 0.695596
v -0.815697 2.438288 0.735596
v -0.815697 2.493547 0.695596
v -0.855697 2.438288 0.695596
v -0.815697 0.006886 0.535596
v -0.855697 0.062145 0.535596
v -0.855697 2.438288 0.535596
v -0.815697 2.493547 0.535596
v 0.004303 0.006886 0.695596
v 0.004303 0.062145 0.735596
v 0.004303 2.493547 0.695596
v 0.004303 2.438288 0.735596
v 0.004303 0.006886 0.535596
v 0.004303 2.493547 0.535596
v -0.105697 1.301858 0.827499
v -0.159674 1.376428 0.772392
v -0.182032 1.301860 0.772392
v -0.159674 1.227292 0.772392
v -0.105697 1.196405 0.772392
v -0.051720 1.227292 0.772392
v -0.029361 1.301860 0.772392
v -0.051720 1.376428 0.772392
v -0.105697 1.407315 0.772392
v -0.147456 1.359546 0.809682
v -0.147456 1.359546 0.735102
v -0.164753 1.301858 0.809682
v -0.164753 1.301858 0.735102
v -0.147456 1.244169 0.809682
v -0.147456 1.244169 0.735102
v -0.105697 1.220274 0.809682
v -0.105697 1.220274 0.735102
v -0.063939 1.244169 0.809682
v -0.063939 1.244169 0.735102
v -0.046641 1.301858 0.809682
v -0.046641 1.301858 0.735102
v -0.063939 1.359546 0.809682
v -0.063939 1.359546 0.735102
v -0.105697 1.383442 0.809682
v -0.105697 1.383442 0.735102
v -0.815654 2.438300 0.535281
v 0.043872 0.062150 0.539969
v 0.044271 2.438474 0.535281
vn -0.0000 -0.0000 1.0000
vn 0.3416 0.5989 -0.7243
vn -0.3429 0.5989 -0.7237
vn -0.4286 0.7953 0.4286
vn 0.4286 0.7953 0.4286
vn -0.9010 -0.2544 0.3515
vn -0.9010 0.2544 0.3515
vn -0.9222 0.2774 -0.2694
vn -0.9261 -0.2500 -0.2826
vn -0.4286 -0.7953 0.4286
vn -0.4857 -0.3516 0.8003
vn -0.4857 0.3516 0.8003
vn 0.4286 -0.7953 0.4286
vn 0.8003 -0.3516 0.4857
vn 0.4857 -0.3516 0.8003
vn 0.4857 0.3516 0.8003
vn 0.8003 0.3516 0.4857
vn -0.3120 -0.5559 -0.7705
vn 0.3521 -0.5593 -0.7505
vn 0.7176 -0.4788 -0.5058
vn 0.7024 0.5098 -0.4966
vn 0.2063 0.1493 0.9670
vn -0.0000 0.2134 0.9770
vn 0.7155 0.5179 -0.4689
vn 0.9073 -0.0000 -0.4204
vn -0.9073 -0.0000 -0.4204
vn -0.7155 0.5179 -0.4689
vn -0.0000 -0.8422 -0.5391
vn -0.7155 -0.5179 -0.4688
vn 0.9073 -0.0000 0.4204
vn 0.7155 -0.5179 0.4689
vn -0.0000 0.8422 0.5392
vn 0.7155 0.5179 0.4689
vn -0.7155 -0.5179 0.4688
vn -0.9073 -0.0000 0.4204
vn -0.7155 0.5179 0.4689
vn -0.0000 -0.8422 0.5391
vn -0.0000 0.8422 -0.5392
vn -0.2063 0.1493 0.9670
vn 0.7155 -0.5179 -0.4689
vn 0.2063 -0.1493 0.9670
vn 0.2888 -0.0000 0.9574
vn -0.2063 -0.1493 0.9670
vn -0.0000 -0.2134 0.9770
vn -0.2888 -0.0000 0.9574
vn 0.0027 0.0021 1.0000
vn 0.0027 0.0030 1.0000
vn 0.1081 0.1229 -0.9865
vn -0.0038 0.0043 -1.0000
vn -0.9924 0.0082 -0.1224
vt 0.656778 0.092808
vt 0.656778 0.136169
vt 0.646665 0.136169
vt 0.646665 0.092808
vt 0.656778 0.155130
vt 0.646665 0.155130
vt 0.646171 0.077183
vt 0.646171 0.120544
vt 0.646665 0.058223
vt 0.646665 0.061558
vt 0.646171 0.061558
vt 0.646665 0.167419
vt 0.646665 0.170755
vt 0.646171 0.167419
vt 0.656778 0.058223
vt 0.657271 0.061558
vt 0.656778 0.061558
vt 0.656778 0.170755
vt 0.656778 0.167419
vt 0.657271 0.167419
vt 0.646665 0.042598
vt 0.646171 0.045933
vt 0.646171 0.136169
vt 0.646171 0.092808
vt 0.646171 0.151794
vt 0.656778 0.042598
vt 0.657271 0.045933
vt 0.657271 0.151794
vt 0.657271 0.092808
vt 0.657271 0.136169
vt 0.798466 0.130479
vt 0.796875 0.131921
vt 0.796875 0.111372
vt 0.798466 0.099229
vt 0.798932 0.100248
vt 0.799784 0.080122
vt 0.799125 0.080122
vt 0.794625 0.080122
vt 0.793966 0.080122
vt 0.794818 0.100248
vt 0.795284 0.099229
vt 0.796875 0.059572
vt 0.796875 0.058131
vt 0.794818 0.059996
vt 0.795284 0.061015
vt 0.799784 0.095747
vt 0.799125 0.111372
vt 0.798466 0.092265
vt 0.798932 0.075621
vt 0.796875 0.117737
vt 0.798932 0.115873
vt 0.794818 0.075621
vt 0.795284 0.092265
vt 0.794625 0.111372
vt 0.793966 0.095747
vt 0.794818 0.115873
vt 0.795284 0.130479
vt 0.796875 0.073756
vt 0.796875 0.090822
vt 0.796875 0.100671
vt 0.796875 0.102112
vt 0.798466 0.061015
vt 0.798932 0.059996
vt 0.953125 0.065509
vt 0.953125 0.130551
vt 0.935202 0.130551
vt 0.935202 0.065509
vt 0.000000 0.000000
s 1
usemtl restaurant.071
f 17/1/1 19/2/1 9/3/1 7/4/1
f 21/5/2 15/6/3 10/6/4 18/5/5
f 8/7/6 11/8/7 14/8/8 13/7/9
f 6/9/10 7/10/11 8/11/6
f 9/12/12 10/13/4 11/14/7
f 16/15/13 2/16/14 17/17/15
f 18/18/5 19/19/16 3/20/17
f 12/21/18 6/21/10 8/22/6 13/22/9
f 7/4/11 9/3/12 11/23/7 8/24/6
f 10/6/4 15/6/3 14/25/8 11/25/7
f 16/26/13 20/26/19 4/27/20 2/27/14
f 21/5/2 18/5/5 3/28/17 5/28/21
f 19/2/16 17/1/15 2/29/14 3/30/17
f 6/9/10 16/15/13 17/17/15 7/10/11
f 18/18/5 10/13/4 9/12/12 19/19/16
f 12/21/18 20/26/19 16/26/13 6/21/10
f 43/31/22 45/32/23 22/33/1
f 44/34/24 29/35/24 28/36/25 42/37/25
f 34/38/26 24/39/26 23/40/27 32/41/27
f 38/42/28 26/43/28 25/44/29 36/45/29
f 28/46/30 41/47/30 39/48/31 27/49/31
f 30/50/32 45/32/32 43/31/33 29/51/33
f 25/52/34 35/53/34 33/54/35 24/55/35
f 23/56/36 31/57/36 45/32/32 30/50/32
f 24/55/35 33/54/35 31/57/36 23/56/36
f 26/58/37 37/59/37 35/53/34 25/52/34
f 46/60/38 30/61/38 29/35/24 44/34/24
f 45/32/23 31/57/39 22/33/1
f 40/62/40 27/63/40 26/43/28 38/42/28
f 27/49/31 39/48/31 37/59/37 26/58/37
f 32/41/27 23/40/27 30/61/38 46/60/38
f 39/48/41 41/47/42 22/33/1
f 29/51/33 43/31/33 41/47/30 28/46/30
f 36/45/29 25/44/29 24/39/26 34/38/26
f 42/37/25 28/36/25 27/63/40 40/62/40
f 35/53/43 37/59/44 22/33/1
f 33/54/45 35/53/43 22/33/1
f 37/59/44 39/48/41 22/33/1
f 31/57/39 33/54/45 22/33/1
f 41/47/42 43/31/22 22/33/1
f 48/64/46 49/65/46 47/66/47 1/67/47
f 1/68/48 12/21/18 13/22/9
f 20/26/19 12/21/18 1/68/48 4/27/20
f 14/25/8 15/6/3 47/68/49
f 15/6/3 21/5/2 5/28/21 47/68/49
s 0
f 4/68/50 16/68/50 3/68/50 49/68/50
