# Blender 4.2.3 LTS
# www.blender.org
mtllib lava-rocks(6).mtl
o Plane
v -0.011051 -0.171601 -0.547361
v -0.005776 -0.171601 -0.685394
v 0.604569 -0.171601 -1.264881
v 1.477863 -0.171601 -0.422228
v 1.378277 -0.171601 0.136986
v 0.940270 -0.171601 0.361859
v 0.328791 -0.171601 1.385644
v -0.206354 -0.171601 1.259654
v -0.835601 -0.171601 0.857071
v -1.304422 -0.171601 0.083363
v -1.358046 -0.171601 -0.399247
v -1.042434 -0.171601 -0.743968
v 0.004740 0.171601 -0.499084
v 0.043967 0.171601 -0.654612
v 0.545200 0.171601 -1.137206
v 1.331165 0.171601 -0.378819
v 1.241538 0.171601 0.124474
v 0.851026 0.171601 0.319471
v 0.297000 0.171601 1.248266
v -0.187586 0.171601 1.133767
v -0.750953 0.171601 0.772551
v -1.178407 0.171601 0.076213
v -1.226668 0.171601 -0.358136
v -0.937102 0.171601 -0.668385
vn -0.4415 -0.2150 -0.8711
vn -0.1804 -0.1437 0.9730
vn 0.6824 -0.1553 0.7142
vn 0.8104 -0.3147 -0.4941
vn -0.8256 -0.2747 -0.4928
vn -0.6474 -0.3616 0.6709
vn 0.9330 -0.3447 -0.1037
vn 0.2153 -0.3461 -0.9131
vn -0.9145 -0.3703 -0.1629
vn 0.6891 -0.3459 0.6367
vn 0.9826 -0.1110 0.1490
vn 0.5107 -0.3214 -0.7974
vn -0.0000 -1.0000 -0.0000
vn -0.0000 1.0000 -0.0000
vt 0.210827 0.959571
s 0
usemtl restaurant.002
f 5/1/1 6/1/1 18/1/1 17/1/1
f 12/1/2 1/1/2 13/1/2 24/1/2
f 2/1/3 3/1/3 15/1/3 14/1/3
f 9/1/4 10/1/4 22/1/4 21/1/4
f 6/1/5 7/1/5 19/1/5 18/1/5
f 3/1/6 4/1/6 16/1/6 15/1/6
f 10/1/7 11/1/7 23/1/7 22/1/7
f 7/1/8 8/1/8 20/1/8 19/1/8
f 4/1/9 5/1/9 17/1/9 16/1/9
f 11/1/10 12/1/10 24/1/10 23/1/10
f 1/1/11 2/1/11 14/1/11 13/1/11
f 8/1/12 9/1/12 21/1/12 20/1/12
f 14/1/13 15/1/13 16/1/13 17/1/13
f 13/1/13 14/1/13 17/1/13 18/1/13
f 18/1/13 19/1/13 20/1/13 13/1/13
f 20/1/13 21/1/13 24/1/13 13/1/13
f 21/1/13 22/1/13 23/1/13 24/1/13
f 9/1/14 12/1/14 11/1/14 10/1/14
f 8/1/14 1/1/14 12/1/14 9/1/14
f 6/1/14 1/1/14 8/1/14 7/1/14
f 1/1/14 6/1/14 5/1/14 2/1/14
f 2/1/14 5/1/14 4/1/14 3/1/14
