# Blender 4.5.0
# www.blender.org
mtllib lava-rocks(1).mtl
o Plane.003
v 0.800753 -0.100000 -1.051226
v 0.148080 -0.100000 0.672382
v 1.223611 -0.100000 -0.063024
v 1.196033 -0.100000 -0.449112
v -0.054157 -0.100000 1.095240
v -1.414657 -0.100000 -0.017061
v -0.881488 -0.100000 -0.678926
v 0.735223 0.100000 -0.953128
v 0.147817 0.100000 0.598119
v 1.115795 0.100000 -0.063746
v 1.090976 0.100000 -0.411225
v -0.034196 0.100000 0.978692
v -1.258646 0.100000 -0.022380
v -0.778794 0.100000 -0.618058
v -0.734407 -0.100000 0.539089
v -0.646421 0.100000 0.478156
v -0.315488 0.100000 -0.009970
v -0.340042 -0.100000 -0.023818
vn -0.6705 0.5087 -0.5401
vn 0.8786 0.4734 -0.0628
vn 0.8906 0.1593 0.4259
vn -0.2001 0.3778 -0.9040
vn 0.7346 0.4772 -0.4823
vn 0.5395 0.2937 0.7891
vn -0.5629 0.4574 0.6885
vn -0.0000 1.0000 -0.0000
vn -0.0000 -1.0000 -0.0000
vt 0.187574 0.934768
s 0
usemtl Material
f 6/1/1 13/1/1 14/1/1 7/1/1
f 4/1/2 11/1/2 10/1/2 3/1/2
f 2/1/3 9/1/3 12/1/3 5/1/3
f 7/1/4 14/1/4 8/1/4 1/1/4
f 1/1/5 8/1/5 11/1/5 4/1/5
f 3/1/6 10/1/6 9/1/6 2/1/6
f 15/1/7 16/1/7 13/1/7 6/1/7
f 16/1/8 12/1/8 9/1/8 17/1/8
f 13/1/8 16/1/8 17/1/8 14/1/8
f 5/1/7 12/1/7 16/1/7 15/1/7
f 9/1/8 10/1/8 11/1/8 17/1/8
f 8/1/8 14/1/8 17/1/8 11/1/8
f 18/1/9 2/1/9 5/1/9 15/1/9
f 15/1/9 6/1/9 7/1/9 18/1/9
f 2/1/9 18/1/9 4/1/9 3/1/9
f 4/1/9 18/1/9 7/1/9 1/1/9
