# Blender 4.2.3 LTS
# www.blender.org
mtllib paper-bag.mtl
o Cube
v -0.469722 -1.062283 0.752232
v -0.207032 1.116388 0.752232
v -0.469722 -1.062283 -0.752232
v -0.207032 1.116388 -0.752232
v 0.469722 -1.062283 0.752232
v 0.112207 0.986544 0.752232
v 0.469722 -1.062283 -0.752232
v 0.112206 0.986544 -0.752232
v -0.416844 -0.975836 -0.702967
v -0.418582 -0.317720 0.752232
v -0.300410 0.656372 0.752232
v -0.300410 0.656372 -0.752232
v -0.418582 -0.317720 -0.752232
v 0.081483 0.598815 -0.752232
v 0.316613 -0.317720 -0.752232
v 0.081483 0.598815 0.752232
v 0.316613 -0.317720 0.752232
v -0.035894 1.233582 0.752232
v -0.035894 1.233582 -0.752232
v 0.135839 1.017486 0.752232
v 0.135839 1.017486 -0.752232
v 0.218115 1.205557 0.747205
v 0.218115 1.205557 -0.744692
v 0.165609 1.022113 0.745948
v 0.165609 1.022113 -0.745948
v 0.291929 1.056144 0.750816
v 0.291929 1.056144 -0.746544
v 0.180744 0.979239 0.748680
v 0.180744 0.979239 -0.749874
v 0.262062 0.897420 0.750816
v 0.262062 0.897420 -0.746544
v 0.162584 0.934759 0.748680
v 0.162584 0.934759 -0.748680
v 0.000000 -1.062283 -0.715711
v -0.047413 1.051466 -0.750879
v 0.000000 -1.062283 0.715711
v -0.047413 1.051466 0.752628
v -0.050985 -0.317720 0.715711
v -0.109464 0.627593 0.715711
v -0.050985 -0.317720 -0.715711
v -0.109464 0.627593 -0.715711
v 0.039609 1.167662 -0.750879
v 0.039609 1.167662 0.749063
v 0.190069 1.119131 -0.747054
v 0.190069 1.119131 0.748198
v 0.228490 1.022840 -0.749755
v 0.228490 1.022840 0.750898
v 0.211897 0.921739 -0.749755
v 0.211898 0.921739 0.750898
vn -0.9800 0.1989 -0.0000
vn -0.1152 -0.0298 -0.9929
vn 0.9969 -0.0790 -0.0000
vn 0.0873 -0.0569 0.9946
vn -0.0000 -1.0000 -0.0000
vn -0.5650 0.8251 -0.0000
vn 0.7947 -0.6070 -0.0000
vn 0.0869 -0.0000 0.9962
vn 0.1295 -0.0040 0.9916
vn 0.9795 0.2014 -0.0000
vn 0.9686 0.2485 -0.0000
vn -0.0869 -0.0119 -0.9961
vn -0.1307 -0.0206 -0.9912
vn -0.9976 0.0685 -0.0000
vn -0.9927 0.1204 -0.0000
vn 0.0312 0.0163 -0.9994
vn 0.0436 0.0164 0.9989
vn 0.0058 0.0198 0.9998
vn 0.0071 -0.0079 -0.9999
vn 0.8966 0.4429 -0.0000
vn -0.9430 -0.3329 -0.0000
vn 0.1536 -0.9881 -0.0000
vn 0.1097 0.9940 -0.0000
vn 0.9828 -0.1849 -0.0000
vn -0.9258 0.3780 -0.0000
vn -0.0786 0.0087 0.9969
vn 0.0229 0.0290 -0.9993
vn -0.0494 0.0118 0.9987
vn 0.0572 -0.0102 -0.9983
vn -0.0079 -0.0063 -0.9999
vn 0.0015 -0.0003 1.0000
vn -0.0607 0.0242 -0.9979
vn -0.0137 0.0194 0.9997
vn -0.0065 0.0049 -1.0000
vn 0.0126 0.0014 0.9999
vn 0.0126 -0.0104 0.9999
vn 0.0605 0.0186 -0.9980
vn 0.1295 -0.0040 -0.9916
vn 0.0869 -0.0000 -0.9962
vn -0.1307 -0.0206 0.9912
vn -0.0869 -0.0119 0.9961
vn -0.1110 -0.0325 0.9933
vn 0.0925 -0.0558 -0.9941
vt 0.527175 0.618155
vt 0.519633 0.618061
vt 0.519915 0.595437
vt 0.527457 0.595531
vt 0.527598 0.584219
vt 0.520056 0.584125
vt 0.520197 0.572813
vt 0.527739 0.572907
vt 0.520479 0.550189
vt 0.528021 0.550283
vt 0.528162 0.538971
vt 0.520620 0.538877
vt 0.520761 0.527565
vt 0.528303 0.527659
vt 0.554133 0.573236
vt 0.542821 0.573095
vt 0.543103 0.550471
vt 0.554415 0.550612
vt 0.543244 0.539159
vt 0.535703 0.539065
vt 0.535844 0.527753
vt 0.543385 0.527847
vt 0.535280 0.573001
vt 0.535562 0.550377
vt 0.542680 0.584407
vt 0.535139 0.584313
vt 0.542257 0.618343
vt 0.534716 0.618249
vt 0.534998 0.595625
vt 0.542539 0.595719
vt 0.565445 0.573377
vt 0.565727 0.550753
s 0
usemtl restaurant.001
f 11/1/1 2/2/1 4/3/1 12/4/1
f 41/5/2 35/6/2 8/7/2 14/8/2
f 14/8/3 8/7/3 6/9/3 16/10/3
f 39/11/4 37/12/4 2/13/4 11/14/4
f 34/15/5 7/16/5 5/17/5 36/18/5
f 4/3/6 2/2/6 18/2/6 19/3/6
f 6/9/7 8/7/7 21/7/7 20/9/7
f 36/19/8 38/20/8 10/21/8 1/22/8
f 38/20/9 39/11/9 11/14/9 10/21/9
f 7/16/10 15/23/10 17/24/10 5/17/10
f 15/23/11 14/8/11 16/10/11 17/24/11
f 34/25/12 40/26/12 15/23/12 7/16/12
f 40/26/13 41/5/13 14/8/13 15/23/13
f 1/27/14 10/28/14 13/29/14 3/30/14
f 10/28/15 11/1/15 12/4/15 13/29/15
f 42/6/16 19/3/16 23/3/16 44/6/16
f 43/12/17 20/9/17 24/9/17 45/12/17
f 37/12/18 6/9/18 20/9/18 43/12/18
f 35/6/19 4/3/19 19/3/19 42/6/19
f 23/3/20 22/2/20 26/2/20 27/3/20
f 24/9/21 25/7/21 29/7/21 28/9/21
f 20/9/22 21/7/22 25/7/22 24/9/22
f 19/3/23 18/2/23 22/2/23 23/3/23
f 27/3/24 26/2/24 30/2/24 31/3/24
f 28/9/25 29/7/25 33/7/25 32/9/25
f 45/12/26 24/9/26 28/9/26 47/12/26
f 44/6/27 23/3/27 27/3/27 46/6/27
f 47/12/28 28/9/28 32/9/28 49/12/28
f 46/6/29 27/3/29 31/3/29 48/6/29
f 29/7/30 46/6/30 48/6/30 33/7/30
f 26/13/31 47/12/31 49/12/31 30/13/31
f 25/7/32 44/6/32 46/6/32 29/7/32
f 22/13/33 45/12/33 47/12/33 26/13/33
f 8/7/34 35/6/34 42/6/34 21/7/34
f 2/13/35 37/12/35 43/12/35 18/13/35
f 18/13/36 43/12/36 45/12/36 22/13/36
f 21/7/37 42/6/37 44/6/37 25/7/37
f 13/29/38 12/4/38 41/5/38 40/26/38
f 3/30/39 13/29/39 40/26/39 34/25/39
f 17/24/40 16/10/40 39/11/40 38/20/40
f 5/17/41 17/24/41 38/20/41 36/19/41
f 3/31/5 34/15/5 36/18/5 1/32/5
f 16/10/42 6/9/42 37/12/42 39/11/42
f 12/4/43 4/3/43 35/6/43 41/5/43
