# Blender 4.2.3 LTS
# www.blender.org
mtllib knife-block.mtl
o knife_Cube.004
v 0.137549 0.429628 -0.008248
v 0.177795 0.297783 -0.003510
v 0.150689 0.304284 -0.062622
v 0.098464 0.301826 -0.042750
v 0.126555 0.304212 -0.062930
v 0.178270 0.302066 -0.041732
v 0.149704 0.295398 0.016672
v 0.138089 0.143174 0.017056
v 0.118223 0.143091 0.010148
v 0.158126 0.143212 0.010657
v 0.118907 0.142910 -0.043442
v 0.139113 0.142903 -0.063138
v 0.158810 0.143031 -0.042933
v 0.097990 0.297542 -0.004528
v 0.136566 0.143577 0.136367
v 0.140988 -0.488395 -0.060981
v 0.140274 -0.462167 -0.011194
v 0.136998 -0.001734 0.136864
v 0.139373 -0.404798 0.045871
v 0.138473 -0.310134 0.094092
v 0.137639 -0.168598 0.126044
v 0.158989 -0.137034 0.009170
v 0.119086 -0.137154 0.008661
v 0.116869 0.143450 0.116162
v 0.120706 -0.422157 -0.050991
v 0.117238 0.013396 0.117964
v 0.120067 -0.398680 -0.006430
v 0.119261 -0.347333 0.044646
v 0.118455 -0.262607 0.087804
v 0.117812 -0.135953 0.108281
v 0.156772 0.143570 0.116671
v 0.160609 -0.422036 -0.050482
v 0.157141 0.013516 0.118473
v 0.159970 -0.398560 -0.005921
v 0.159164 -0.347213 0.045155
v 0.158358 -0.262486 0.088313
v 0.157715 -0.135833 0.108790
v 0.098315 0.190333 -0.004684
v 0.150020 0.190559 0.016647
v 0.178611 0.190443 -0.042133
v 0.126906 0.190217 -0.063462
v 0.098806 0.190203 -0.043151
v 0.151039 0.190289 -0.063155
v 0.178120 0.190573 -0.003666
v 0.125887 0.190486 0.016339
v 0.099504 0.412515 -0.035586
v 0.098893 0.407005 0.013580
v 0.149894 0.415626 -0.061361
v 0.126647 0.415556 -0.061658
v 0.175771 0.407237 0.014561
v 0.176381 0.412747 -0.034605
v 0.125380 0.404126 0.040338
v 0.148628 0.404196 0.040635
v 0.125571 0.295325 0.016364
v 0.007677 -0.022635 0.037854
v 0.007677 -0.562952 0.287854
v 0.007677 -0.082318 0.287854
v -0.117323 -0.082318 0.254360
v -0.117323 -0.562952 0.254360
v 0.132677 -0.562952 0.254360
v 0.132677 -0.082318 0.254360
v 0.257677 -0.562952 0.037854
v 0.257677 -0.082318 0.037854
v 0.224183 -0.082318 0.162854
v 0.224183 -0.562952 0.162854
v -0.208830 -0.082318 0.162854
v -0.208830 -0.562952 0.162854
v -0.242323 -0.082318 0.037854
v -0.242323 -0.562952 0.037854
v -0.208830 -0.082318 -0.087146
v -0.208830 -0.562952 -0.087146
v -0.117323 -0.082318 -0.178652
v -0.117323 -0.562952 -0.178652
v 0.007677 -0.082318 -0.212146
v 0.007677 -0.562952 -0.212146
v 0.132677 -0.082318 -0.178652
v 0.132677 -0.562952 -0.178652
v 0.224183 -0.082318 -0.087146
v 0.224183 -0.562952 -0.087146
v 0.007677 -0.022635 0.244806
v 0.111152 -0.022635 0.217079
v 0.186903 -0.022635 0.141330
v 0.214628 -0.022635 0.037854
v 0.186903 -0.022635 -0.065622
v 0.111152 -0.022635 -0.141371
v 0.007677 -0.022635 -0.169098
v -0.095798 -0.022635 -0.141371
v -0.171548 -0.022635 -0.065622
v -0.199274 -0.022635 0.037854
v -0.171548 -0.022635 0.141330
v -0.095798 -0.022635 0.217079
v -0.048722 0.306716 -0.029153
v -0.015870 0.199095 -0.025286
v -0.037996 0.204402 -0.073538
v -0.080625 0.202395 -0.057317
v -0.057695 0.204343 -0.073789
v -0.015482 0.202592 -0.056486
v -0.038800 0.197148 -0.008812
v -0.048281 0.072893 -0.008499
v -0.064497 0.072825 -0.014137
v -0.031926 0.072923 -0.013722
v -0.063939 0.072677 -0.057881
v -0.047445 0.072671 -0.073959
v -0.031367 0.072776 -0.057466
v -0.081013 0.198899 -0.026117
v -0.049524 0.073222 0.088891
v -0.045915 -0.442638 -0.072198
v -0.046497 -0.421229 -0.031558
v -0.049172 -0.045392 0.089297
v -0.047233 -0.374400 0.015022
v -0.047968 -0.297129 0.054383
v -0.048648 -0.181597 0.080465
v -0.031221 -0.155832 -0.014936
v -0.063792 -0.155931 -0.015351
v -0.065602 0.073118 0.072399
v -0.062470 -0.388570 -0.064043
v -0.065300 -0.033042 0.073869
v -0.062992 -0.369406 -0.027670
v -0.063650 -0.327493 0.014022
v -0.064308 -0.258334 0.049251
v -0.064832 -0.154950 0.065965
v -0.033030 0.073216 0.072814
v -0.029899 -0.388471 -0.063628
v -0.032729 -0.032943 0.074285
v -0.030420 -0.369308 -0.027254
v -0.031078 -0.327395 0.014437
v -0.031736 -0.258236 0.049666
v -0.032261 -0.154852 0.066381
v -0.080747 0.111387 -0.026244
v -0.038542 0.111572 -0.008833
v -0.015204 0.111477 -0.056813
v -0.057409 0.111292 -0.074224
v -0.080347 0.111281 -0.057644
v -0.037710 0.111351 -0.073972
v -0.015604 0.111583 -0.025414
v -0.058241 0.111512 -0.009084
v -0.079777 0.292748 -0.051469
v -0.080275 0.288250 -0.011336
v -0.038645 0.295287 -0.072508
v -0.057621 0.295229 -0.072750
v -0.017522 0.288439 -0.010535
v -0.017024 0.292937 -0.050668
v -0.058655 0.285899 0.010506
v -0.039679 0.285957 0.010748
v -0.058499 0.197089 -0.009064
v -0.135000 0.233639 -0.038400
v -0.110098 0.152060 -0.035469
v -0.126870 0.156083 -0.072045
v -0.159184 0.154562 -0.059749
v -0.141802 0.156038 -0.072235
v -0.109804 0.154710 -0.059119
v -0.127479 0.150584 -0.022981
v -0.134666 0.056396 -0.022744
v -0.146958 0.056345 -0.027018
v -0.122268 0.056419 -0.026703
v -0.146535 0.056233 -0.060177
v -0.134032 0.056228 -0.072364
v -0.121845 0.056307 -0.059862
v -0.159477 0.151911 -0.036099
v -0.135608 0.056645 0.051080
v -0.132872 -0.334387 -0.071029
v -0.133314 -0.318158 -0.040223
v -0.135341 -0.033266 0.051387
v -0.133871 -0.282661 -0.004914
v -0.134429 -0.224088 0.024922
v -0.134945 -0.136513 0.044693
v -0.121734 -0.116982 -0.027623
v -0.146424 -0.117057 -0.027938
v -0.147796 0.056566 0.038578
v -0.145422 -0.293402 -0.064848
v -0.147567 -0.023904 0.039693
v -0.145817 -0.278876 -0.037276
v -0.146316 -0.247105 -0.005673
v -0.146815 -0.194681 0.021032
v -0.147212 -0.116314 0.033701
v -0.123106 0.056641 0.038893
v -0.120732 -0.293328 -0.064533
v -0.122877 -0.023830 0.040008
v -0.121127 -0.278801 -0.036961
v -0.121626 -0.247031 -0.005358
v -0.122125 -0.194606 0.021347
v -0.122522 -0.116239 0.034016
v -0.159276 0.085575 -0.036195
v -0.127283 0.085715 -0.022997
v -0.109593 0.085644 -0.059367
v -0.141586 0.085503 -0.072564
v -0.158973 0.085495 -0.059997
v -0.126653 0.085548 -0.072374
v -0.109897 0.085724 -0.035565
v -0.142216 0.085670 -0.023187
v -0.158540 0.223051 -0.055316
v -0.158918 0.219641 -0.024894
v -0.127362 0.224975 -0.071264
v -0.141746 0.224932 -0.071448
v -0.111350 0.219785 -0.024288
v -0.110973 0.223194 -0.054709
v -0.142530 0.217860 -0.008338
v -0.128145 0.217903 -0.008155
v -0.142412 0.150539 -0.023172
v 0.038301 0.347445 -0.021604
v 0.070562 0.241758 -0.017806
v 0.048834 0.246969 -0.065191
v 0.006971 0.244999 -0.049261
v 0.029488 0.246911 -0.065438
v 0.070943 0.245191 -0.048446
v 0.048044 0.239846 -0.001629
v 0.038734 0.117823 -0.001320
v 0.022809 0.117757 -0.006858
v 0.054795 0.117854 -0.006450
v 0.023357 0.117612 -0.049816
v 0.039554 0.117606 -0.065604
v 0.055343 0.117708 -0.049408
v 0.006590 0.241565 -0.018622
v 0.037513 0.118147 0.094319
v 0.041057 -0.388443 -0.063875
v 0.040485 -0.367418 -0.023966
v 0.037859 0.001665 0.094717
v 0.039763 -0.321431 0.021778
v 0.039041 -0.245548 0.060431
v 0.038373 -0.132093 0.086044
v 0.055487 -0.106791 -0.007642
v 0.023501 -0.106888 -0.008050
v 0.021724 0.118044 0.078123
v 0.024800 -0.335346 -0.055867
v 0.022020 0.013793 0.079567
v 0.024287 -0.316527 -0.020147
v 0.023641 -0.275367 0.020795
v 0.022995 -0.207450 0.055391
v 0.022480 -0.105925 0.071805
v 0.053710 0.118141 0.078531
v 0.056786 -0.335249 -0.055459
v 0.054006 0.013889 0.079975
v 0.056273 -0.316430 -0.019739
v 0.055627 -0.275271 0.021203
v 0.054981 -0.207354 0.055799
v 0.054466 -0.105828 0.072213
v 0.006851 0.155626 -0.018747
v 0.048298 0.155807 -0.001649
v 0.071216 0.155714 -0.048767
v 0.029769 0.155533 -0.065864
v 0.007244 0.155521 -0.049583
v 0.049114 0.155591 -0.065618
v 0.070823 0.155818 -0.017931
v 0.028953 0.155749 -0.001895
v 0.007804 0.333727 -0.043518
v 0.007315 0.329310 -0.004107
v 0.048197 0.336221 -0.064180
v 0.029562 0.336165 -0.064418
v 0.068940 0.329496 -0.003321
v 0.069429 0.333913 -0.042732
v 0.028546 0.327002 0.017342
v 0.047181 0.327058 0.017580
v 0.028699 0.239788 -0.001875
vn -0.9792 -0.2023 -0.0118
vn -0.9799 -0.1991 -0.0118
vn -0.9929 -0.1184 -0.0123
vn -0.9762 -0.2166 -0.0117
vn 0.3628 -0.0615 -0.9298
vn 0.0130 -0.1131 -0.9935
vn -0.3386 -0.0636 -0.9388
vn 0.9775 -0.2107 0.0132
vn 0.9936 -0.1124 0.0131
vn 0.9811 -0.1932 0.0132
vn 0.9804 -0.1964 0.0132
vn -0.5659 -0.0140 0.8244
vn -0.5070 -0.0305 0.8614
vn -0.0127 -0.0254 0.9996
vn -0.3159 -0.0072 0.9488
vn 0.2916 -0.0053 0.9565
vn -0.5893 0.0018 -0.8079
vn -0.6116 -0.1158 -0.7827
vn 0.6320 -0.1120 -0.7668
vn 0.6097 0.0054 -0.7926
vn 0.7817 -0.2455 0.5733
vn 0.9098 -0.0944 0.4042
vn 0.6907 -0.0669 0.7200
vn 0.6877 -0.1140 0.7170
vn 0.9282 -0.3051 0.2129
vn 0.9725 -0.1688 0.1602
vn 0.9460 -0.1570 0.2837
vn 0.8813 -0.2983 0.3666
vn 0.6895 -0.0262 0.7238
vn 0.6874 -0.0100 0.7262
vn 0.6848 0.0081 0.7287
vn 0.9365 -0.3044 0.1738
vn 0.9709 -0.2058 0.1224
vn -0.7051 -0.1182 0.6992
vn -0.7084 -0.0711 0.7022
vn -0.9192 -0.0999 0.3808
vn -0.7946 -0.2502 0.5532
vn -0.8885 -0.3036 0.3440
vn -0.9519 -0.1627 0.2595
vn -0.9753 -0.1747 0.1354
vn -0.9315 -0.3107 0.1892
vn -0.7032 0.0039 0.7110
vn -0.7056 -0.0142 0.7085
vn -0.7075 -0.0304 0.7060
vn -0.0030 1.0000 -0.0034
vn -0.9725 -0.2117 0.0976
vn -0.9388 -0.3101 0.1499
vn -0.9999 -0.0030 -0.0128
vn 0.9999 0.0030 0.0128
vn -0.6055 -0.0938 -0.7903
vn -0.6137 0.0165 -0.7894
vn -0.6435 0.0323 -0.7647
vn -0.3277 0.0231 -0.9445
vn -0.3197 0.0136 -0.9474
vn 0.6260 -0.0901 -0.7746
vn 0.3436 0.0156 -0.9390
vn 0.3516 0.0251 -0.9358
vn 0.6626 0.0363 -0.7481
vn 0.6335 0.0202 -0.7735
vn 0.4851 -0.0275 0.8740
vn 0.5447 -0.0107 0.8385
vn 0.6165 -0.0682 0.7844
vn 0.6439 -0.1359 0.7530
vn 0.3280 -0.1884 0.9257
vn 0.3276 -0.0927 0.9403
vn -0.3509 -0.0948 0.9316
vn -0.6359 -0.0719 0.7684
vn 0.9999 0.0095 0.0135
vn 0.9999 0.0099 0.0135
vn -0.9999 0.0039 -0.0120
vn -0.9999 0.0034 -0.0120
vn -0.0044 0.9937 0.1116
vn -0.3685 0.9272 -0.0676
vn -0.3729 0.8901 0.2621
vn 0.1260 0.9661 -0.2254
vn -0.1261 0.9653 -0.2286
vn 0.3607 0.8923 0.2714
vn 0.3645 0.9294 -0.0583
vn -0.1345 0.8909 0.4339
vn 0.1181 0.8916 0.4371
vn -0.3503 -0.1904 0.9171
vn -0.6621 -0.1398 0.7363
vn 0.9998 0.0161 0.0142
vn -0.9999 0.0101 -0.0113
vn -0.4780 0.2935 0.8279
vn -0.0000 0.2935 0.9560
vn -0.0000 0.5850 0.8110
vn -0.4055 0.5850 0.7024
vn 0.4780 0.2935 0.8279
vn 0.4055 0.5850 0.7024
vn 0.8279 0.2935 0.4780
vn 0.9560 0.2935 -0.0000
vn 0.8110 0.5850 -0.0000
vn 0.7024 0.5850 0.4055
vn -0.8279 0.2935 0.4780
vn -0.7024 0.5850 0.4055
vn -0.9560 0.2935 -0.0000
vn -0.8110 0.5850 -0.0000
vn -0.8279 0.2935 -0.4780
vn -0.7024 0.5850 -0.4055
vn -0.4780 0.2935 -0.8279
vn -0.4055 0.5850 -0.7024
vn -0.0000 0.2935 -0.9560
vn -0.0000 0.5850 -0.8110
vn 0.4780 0.2935 -0.8279
vn 0.4055 0.5850 -0.7024
vn 0.8279 0.2935 -0.4780
vn 0.7024 0.5850 -0.4055
vn 0.4197 -0.6592 -0.6240
vn 0.4662 -0.3612 -0.8075
vn -0.0000 -0.3612 -0.9325
vn -0.4662 -0.3612 -0.8075
vn -0.8075 -0.3612 -0.4662
vn -0.9325 -0.3612 -0.0000
vn -0.8075 -0.3612 0.4662
vn 0.6240 -0.6592 0.4197
vn 0.8075 -0.3612 0.4662
vn -0.4662 -0.3612 0.8075
vn 0.9325 -0.3612 -0.0000
vn 0.3306 -0.6592 0.6755
vn -0.0000 1.0000 -0.0000
vn 0.6165 -0.0681 0.7844
vn 0.9366 -0.3044 0.1738
vt 0.204357 0.914563
vt 0.204479 0.883134
vt 0.195241 0.883134
vt 0.197726 0.914563
vt 0.207920 0.959955
vt 0.207918 0.928526
vt 0.197726 0.879683
vt 0.195241 0.848254
vt 0.194095 0.848254
vt 0.194164 0.879683
vt 0.194164 0.869170
vt 0.194095 0.837741
vt 0.429640 0.948433
vt 0.431135 0.935399
vt 0.458573 0.829487
vt 0.462248 0.830794
vt 0.410151 0.905114
vt 0.413691 0.896627
vt 0.416378 0.871670
vt 0.411482 0.876635
vt 0.421801 0.940309
vt 0.424119 0.928128
vt 0.417324 0.915235
vt 0.414210 0.925904
vt 0.418002 0.844802
vt 0.422213 0.843178
vt 0.429181 0.819031
vt 0.425507 0.817724
vt 0.404963 0.900154
vt 0.403632 0.928633
vt 0.407691 0.949423
vt 0.415282 0.963828
vt 0.418988 0.841243
vt 0.411483 0.868321
vt 0.457257 0.790262
vt 0.458482 0.790698
vt 0.438959 0.783753
vt 0.435285 0.782446
vt 0.423122 0.971952
vt 0.444458 0.901211
vt 0.468352 0.794209
vt 0.440913 0.900121
vt 0.431991 0.807900
vt 0.433897 0.892850
vt 0.427102 0.879957
vt 0.423469 0.861350
vt 0.426157 0.836392
vt 0.204479 0.928526
vt 0.204357 0.959955
vt 0.204222 0.932009
vt 0.202925 0.904304
vt 0.207477 0.903540
vt 0.207761 0.931416
vt 0.197636 0.852842
vt 0.194454 0.825453
vt 0.189902 0.826217
vt 0.194098 0.853436
vt 0.194098 0.842923
vt 0.197636 0.887722
vt 0.204222 0.886617
vt 0.198288 0.831983
vt 0.202925 0.836215
vt 0.194454 0.837636
vt 0.207477 0.835452
vt 0.189902 0.838400
vt 0.189902 0.815704
vt 0.194454 0.860333
vt 0.202925 0.858912
vt 0.671842 0.551058
vt 0.688540 0.551058
vt 0.688540 0.543085
vt 0.674854 0.543085
vt 0.705238 0.551058
vt 0.702226 0.543085
vt 0.717462 0.551058
vt 0.721936 0.551058
vt 0.715911 0.543085
vt 0.712245 0.543085
vt 0.659617 0.551058
vt 0.664835 0.543085
vt 0.655143 0.551058
vt 0.661168 0.543085
vt 0.705238 0.566683
vt 0.717462 0.566683
vt 0.717462 0.630888
vt 0.705238 0.630888
vt 0.688540 0.566683
vt 0.688540 0.630888
vt 0.671842 0.566683
vt 0.671842 0.630888
vt 0.659617 0.566683
vt 0.659617 0.630888
vt 0.655143 0.566683
vt 0.655143 0.630888
vt 0.721936 0.630888
vt 0.721936 0.566683
vt 0.688540 0.527460
vt 0.702226 0.527460
vt 0.712245 0.527460
vt 0.715911 0.527460
vt 0.674854 0.527460
vt 0.664835 0.527460
vt 0.661168 0.527460
s 1
usemtl restaurant.044
f 42/1/1 11/2/2 9/3/3 38/4/4
f 43/5/5 12/6/6 41/5/7
f 44/4/8 10/3/9 13/2/10 40/1/11
f 38/7/12 9/8/13 8/9/14 45/10/15
f 45/11/15 8/12/14 39/11/16
f 16/13/17 25/14/17 11/15/18 12/16/6
f 12/16/6 13/15/19 32/14/20 16/13/20
f 20/17/21 36/18/22 37/19/23 21/20/24
f 17/21/25 34/22/26 35/23/27 19/24/28
f 18/25/29 33/26/30 31/27/31 15/28/31
f 21/20/24 37/19/23 33/26/30 18/25/29
f 19/24/28 35/23/27 36/18/22 20/17/21
f 16/13/32 32/14/33 34/22/26 17/21/25
f 21/29/34 30/19/35 29/18/36 20/30/37
f 19/31/38 28/23/39 27/22/40 17/32/41
f 15/33/42 24/27/42 26/26/43 18/34/44
f 8/35/45 9/36/45 24/37/45 15/38/45
f 18/34/44 26/26/43 30/19/35 21/29/34
f 20/30/37 29/18/36 28/23/39 19/31/38
f 17/32/41 27/22/40 25/14/46 16/39/47
f 23/40/48 9/36/3 11/41/2
f 23/40/48 11/41/2 25/42/46
f 23/40/48 26/43/48 24/37/48
f 23/40/48 25/42/46 27/44/40
f 23/40/48 27/44/40 28/45/39
f 23/40/48 28/45/39 29/46/36
f 23/40/48 29/46/36 30/47/48
f 23/40/48 30/47/48 26/43/48
f 22/40/49 10/36/9 31/37/49
f 22/40/49 32/42/33 13/41/10
f 22/40/49 31/37/49 33/43/49
f 22/40/49 34/44/26 32/42/33
f 22/40/49 35/45/27 34/44/26
f 22/40/49 36/46/22 35/45/27
f 22/40/49 37/47/49 36/46/22
f 22/40/49 33/43/49 37/47/49
f 11/48/18 42/49/50 41/5/7 12/6/6
f 4/50/51 46/51/52 49/52/53 5/53/54
f 12/6/6 43/5/5 40/49/55 13/48/19
f 3/53/56 48/52/57 51/51/58 6/50/59
f 10/8/60 44/7/61 39/10/16 8/9/14
f 2/54/62 50/55/63 53/56/64 7/57/65
f 54/58/66 45/11/15 39/11/16 7/58/65
f 14/54/67 38/7/12 45/10/15 54/57/66
f 2/59/68 44/4/8 40/1/11 6/60/69
f 3/53/56 43/5/5 41/5/7 5/53/54
f 4/60/70 42/1/1 38/4/4 14/59/71
f 15/38/45 31/37/45 10/36/45 8/35/45
f 24/37/48 9/36/3 23/40/48
f 13/41/10 10/36/9 22/40/49
f 44/7/61 2/54/62 7/57/65 39/10/16
f 1/61/72 46/62/73 47/63/74
f 1/61/72 48/64/75 49/64/76
f 1/61/72 50/63/77 51/62/78
f 1/61/72 47/63/74 52/65/79
f 1/61/72 53/65/80 50/63/77
f 1/61/72 51/62/78 48/64/75
f 1/61/72 49/64/76 46/62/73
f 1/61/72 52/65/79 53/65/80
f 52/66/81 54/58/66 7/58/65 53/66/64
f 47/55/82 14/54/67 54/57/66 52/56/81
f 50/67/83 2/59/68 6/60/69 51/68/83
f 48/52/57 3/53/56 5/53/54 49/52/53
f 46/68/84 4/60/70 14/59/71 47/67/84
f 43/5/5 3/53/56 6/50/59 40/49/55
f 42/49/50 4/50/51 5/53/54 41/5/7
usemtl restaurant.022
f 58/69/85 57/70/86 80/71/87 91/72/88
f 57/70/86 61/73/89 81/74/90 80/71/87
f 64/75/91 63/76/92 83/77/93 82/78/94
f 66/79/95 58/69/85 91/72/88 90/80/96
f 61/73/89 64/75/91 82/78/94 81/74/90
f 68/81/97 66/79/95 90/80/96 89/82/98
f 70/79/99 68/81/97 89/82/98 88/80/100
f 72/69/101 70/79/99 88/80/100 87/72/102
f 74/70/103 72/69/101 87/72/102 86/71/104
f 76/73/105 74/70/103 86/71/104 85/74/106
f 78/75/107 76/73/105 85/74/106 84/78/108
f 63/76/92 78/75/107 84/78/108 83/77/93
f 76/83/105 78/84/107 79/85/109 77/86/110
f 74/87/103 76/83/105 77/86/110 75/88/111
f 72/89/101 74/87/103 75/88/111 73/90/112
f 70/91/99 72/89/101 73/90/112 71/92/113
f 68/93/97 70/91/99 71/92/113 69/94/114
f 66/91/95 68/93/97 69/94/114 67/92/115
f 64/84/91 61/83/89 60/86/116 65/85/117
f 58/89/85 66/91/95 67/92/115 59/90/118
f 62/95/119 63/96/92 64/84/91 65/85/117
f 60/86/116 61/83/89 57/87/86 56/88/120
f 56/88/120 57/87/86 58/89/85 59/90/118
f 79/85/109 62/95/119 65/85/117 60/86/116 56/88/120 59/90/118 67/92/115 69/94/114 71/92/113 73/90/112 75/88/111 77/86/110
f 55/97/121 80/97/121 81/98/121
f 55/97/121 81/98/121 82/99/121
f 55/97/121 82/99/121 83/100/121
f 55/97/121 83/100/121 84/99/121
f 55/97/121 84/99/121 85/98/121
f 55/97/121 85/98/121 86/97/121
f 55/97/121 86/97/121 87/101/121
f 55/97/121 87/101/121 88/102/121
f 55/97/121 88/102/121 89/103/121
f 55/97/121 89/103/121 90/102/121
f 55/97/121 90/102/121 91/101/121
f 55/97/121 91/101/121 80/97/121
f 78/84/107 63/96/92 62/95/119 79/85/109
usemtl restaurant.041
f 133/1/1 102/2/2 100/3/3 129/4/4
f 134/5/5 103/6/6 132/5/7
f 135/4/8 101/3/9 104/2/10 131/1/11
f 129/7/12 100/8/13 99/9/14 136/10/15
f 136/11/15 99/12/14 130/11/16
f 107/13/17 116/14/17 102/15/18 103/16/6
f 103/16/6 104/15/19 123/14/20 107/13/20
f 111/17/21 127/18/22 128/19/23 112/20/24
f 108/21/25 125/22/26 126/23/27 110/24/28
f 109/25/29 124/26/30 122/27/31 106/28/31
f 112/20/24 128/19/23 124/26/30 109/25/29
f 110/24/28 126/23/27 127/18/22 111/17/21
f 107/13/32 123/14/33 125/22/26 108/21/25
f 112/29/34 121/19/35 120/18/36 111/30/37
f 110/31/38 119/23/39 118/22/40 108/32/41
f 106/33/42 115/27/42 117/26/43 109/34/44
f 99/35/45 100/36/45 115/37/45 106/38/45
f 109/34/44 117/26/43 121/19/35 112/29/34
f 111/30/37 120/18/36 119/23/39 110/31/38
f 108/32/41 118/22/40 116/14/46 107/39/47
f 114/40/48 100/36/3 102/41/2
f 114/40/48 102/41/2 116/42/46
f 114/40/48 117/43/48 115/37/48
f 114/40/48 116/42/46 118/44/40
f 114/40/48 118/44/40 119/45/39
f 114/40/48 119/45/39 120/46/36
f 114/40/48 120/46/36 121/47/48
f 114/40/48 121/47/48 117/43/48
f 113/40/49 101/36/9 122/37/49
f 113/40/49 123/42/33 104/41/10
f 113/40/49 122/37/49 124/43/49
f 113/40/49 125/44/26 123/42/33
f 113/40/49 126/45/27 125/44/26
f 113/40/49 127/46/22 126/45/27
f 113/40/49 128/47/49 127/46/22
f 113/40/49 124/43/49 128/47/49
f 102/48/18 133/49/50 132/5/7 103/6/6
f 95/50/51 137/51/52 140/52/53 96/53/54
f 103/6/6 134/5/5 131/49/55 104/48/19
f 94/53/56 139/52/57 142/51/58 97/50/59
f 101/8/60 135/7/61 130/10/16 99/9/14
f 93/54/122 141/55/63 144/56/64 98/57/65
f 145/58/66 136/11/15 130/11/16 98/58/65
f 105/54/67 129/7/12 136/10/15 145/57/66
f 93/59/68 135/4/8 131/1/11 97/60/69
f 94/53/56 134/5/5 132/5/7 96/53/54
f 95/60/70 133/1/1 129/4/4 105/59/71
f 106/38/45 122/37/45 101/36/45 99/35/45
f 115/37/48 100/36/3 114/40/48
f 104/41/10 101/36/9 113/40/49
f 135/7/61 93/54/122 98/57/65 130/10/16
f 92/61/72 137/62/73 138/63/74
f 92/61/72 139/64/75 140/64/76
f 92/61/72 141/63/77 142/62/78
f 92/61/72 138/63/74 143/65/79
f 92/61/72 144/65/80 141/63/77
f 92/61/72 142/62/78 139/64/75
f 92/61/72 140/64/76 137/62/73
f 92/61/72 143/65/79 144/65/80
f 143/66/81 145/58/66 98/58/65 144/66/64
f 138/55/82 105/54/67 145/57/66 143/56/81
f 141/67/83 93/59/68 97/60/69 142/68/83
f 139/52/57 94/53/56 96/53/54 140/52/53
f 137/68/84 95/60/70 105/59/71 138/67/84
f 134/5/5 94/53/56 97/50/59 131/49/55
f 133/49/50 95/50/51 96/53/54 132/5/7
usemtl restaurant.042
f 187/1/1 156/2/2 154/3/3 183/4/4
f 188/5/5 157/6/6 186/5/7
f 189/4/8 155/3/9 158/2/10 185/1/11
f 183/7/12 154/8/13 153/9/14 190/10/15
f 190/11/15 153/12/14 184/11/16
f 161/13/17 170/14/17 156/15/18 157/16/6
f 157/16/6 158/15/19 177/14/20 161/13/20
f 165/17/21 181/18/22 182/19/23 166/20/24
f 162/21/25 179/22/26 180/23/27 164/24/28
f 163/25/29 178/26/30 176/27/31 160/28/31
f 166/20/24 182/19/23 178/26/30 163/25/29
f 164/24/28 180/23/27 181/18/22 165/17/21
f 161/13/123 177/14/33 179/22/26 162/21/25
f 166/29/34 175/19/35 174/18/36 165/30/37
f 164/31/38 173/23/39 172/22/40 162/32/41
f 160/33/42 169/27/42 171/26/43 163/34/44
f 153/35/45 154/36/45 169/37/45 160/38/45
f 163/34/44 171/26/43 175/19/35 166/29/34
f 165/30/37 174/18/36 173/23/39 164/31/38
f 162/32/41 172/22/40 170/14/46 161/39/47
f 168/40/48 154/36/3 156/41/2
f 168/40/48 156/41/2 170/42/46
f 168/40/48 171/43/48 169/37/48
f 168/40/48 170/42/46 172/44/40
f 168/40/48 172/44/40 173/45/39
f 168/40/48 173/45/39 174/46/36
f 168/40/48 174/46/36 175/47/48
f 168/40/48 175/47/48 171/43/48
f 167/40/49 155/36/9 176/37/49
f 167/40/49 177/42/33 158/41/10
f 167/40/49 176/37/49 178/43/49
f 167/40/49 179/44/26 177/42/33
f 167/40/49 180/45/27 179/44/26
f 167/40/49 181/46/22 180/45/27
f 167/40/49 182/47/49 181/46/22
f 167/40/49 178/43/49 182/47/49
f 156/48/18 187/49/50 186/5/7 157/6/6
f 149/50/51 191/51/52 194/52/53 150/53/54
f 157/6/6 188/5/5 185/49/55 158/48/19
f 148/53/56 193/52/57 196/51/58 151/50/59
f 155/8/60 189/7/61 184/10/16 153/9/14
f 147/54/122 195/55/63 198/56/64 152/57/65
f 199/58/66 190/11/15 184/11/16 152/58/65
f 159/54/67 183/7/12 190/10/15 199/57/66
f 147/59/68 189/4/8 185/1/11 151/60/69
f 148/53/56 188/5/5 186/5/7 150/53/54
f 149/60/70 187/1/1 183/4/4 159/59/71
f 160/38/45 176/37/45 155/36/45 153/35/45
f 169/37/48 154/36/3 168/40/48
f 158/41/10 155/36/9 167/40/49
f 189/7/61 147/54/122 152/57/65 184/10/16
f 146/61/72 191/62/73 192/63/74
f 146/61/72 193/64/75 194/64/76
f 146/61/72 195/63/77 196/62/78
f 146/61/72 192/63/74 197/65/79
f 146/61/72 198/65/80 195/63/77
f 146/61/72 196/62/78 193/64/75
f 146/61/72 194/64/76 191/62/73
f 146/61/72 197/65/79 198/65/80
f 197/66/81 199/58/66 152/58/65 198/66/64
f 192/55/82 159/54/67 199/57/66 197/56/81
f 195/67/83 147/59/68 151/60/69 196/68/83
f 193/52/57 148/53/56 150/53/54 194/52/53
f 191/68/84 149/60/70 159/59/71 192/67/84
f 188/5/5 148/53/56 151/50/59 185/49/55
f 187/49/50 149/50/51 150/53/54 186/5/7
usemtl restaurant.043
f 241/1/1 210/2/2 208/3/3 237/4/4
f 242/5/5 211/6/6 240/5/7
f 243/4/8 209/3/9 212/2/10 239/1/11
f 237/7/12 208/8/13 207/9/14 244/10/15
f 244/11/15 207/12/14 238/11/16
f 215/13/17 224/14/17 210/15/18 211/16/6
f 211/16/6 212/15/19 231/14/20 215/13/20
f 219/17/21 235/18/22 236/19/23 220/20/24
f 216/21/25 233/22/26 234/23/27 218/24/28
f 217/25/29 232/26/30 230/27/31 214/28/31
f 220/20/24 236/19/23 232/26/30 217/25/29
f 218/24/28 234/23/27 235/18/22 219/17/21
f 215/13/32 231/14/33 233/22/26 216/21/25
f 220/29/34 229/19/35 228/18/36 219/30/37
f 218/31/38 227/23/39 226/22/40 216/32/41
f 214/33/42 223/27/42 225/26/43 217/34/44
f 207/35/45 208/36/45 223/37/45 214/38/45
f 217/34/44 225/26/43 229/19/35 220/29/34
f 219/30/37 228/18/36 227/23/39 218/31/38
f 216/32/41 226/22/40 224/14/46 215/39/47
f 222/40/48 208/36/3 210/41/2
f 222/40/48 210/41/2 224/42/46
f 222/40/48 225/43/48 223/37/48
f 222/40/48 224/42/46 226/44/40
f 222/40/48 226/44/40 227/45/39
f 222/40/48 227/45/39 228/46/36
f 222/40/48 228/46/36 229/47/48
f 222/40/48 229/47/48 225/43/48
f 221/40/49 209/36/9 230/37/49
f 221/40/49 231/42/33 212/41/10
f 221/40/49 230/37/49 232/43/49
f 221/40/49 233/44/26 231/42/33
f 221/40/49 234/45/27 233/44/26
f 221/40/49 235/46/22 234/45/27
f 221/40/49 236/47/49 235/46/22
f 221/40/49 232/43/49 236/47/49
f 210/48/18 241/49/50 240/5/7 211/6/6
f 203/50/51 245/51/52 248/52/53 204/53/54
f 211/6/6 242/5/5 239/49/55 212/48/19
f 202/53/56 247/52/57 250/51/58 205/50/59
f 209/8/60 243/7/61 238/10/16 207/9/14
f 201/54/62 249/55/63 252/56/64 206/57/65
f 253/58/66 244/11/15 238/11/16 206/58/65
f 213/54/67 237/7/12 244/10/15 253/57/66
f 201/59/68 243/4/8 239/1/11 205/60/69
f 202/53/56 242/5/5 240/5/7 204/53/54
f 203/60/70 241/1/1 237/4/4 213/59/71
f 214/38/45 230/37/45 209/36/45 207/35/45
f 223/37/48 208/36/3 222/40/48
f 212/41/10 209/36/9 221/40/49
f 243/7/61 201/54/62 206/57/65 238/10/16
f 200/61/72 245/62/73 246/63/74
f 200/61/72 247/64/75 248/64/76
f 200/61/72 249/63/77 250/62/78
f 200/61/72 246/63/74 251/65/79
f 200/61/72 252/65/80 249/63/77
f 200/61/72 250/62/78 247/64/75
f 200/61/72 248/64/76 245/62/73
f 200/61/72 251/65/79 252/65/80
f 251/66/81 253/58/66 206/58/65 252/66/64
f 246/55/82 213/54/67 253/57/66 251/56/81
f 249/67/83 201/59/68 205/60/69 250/68/83
f 247/52/57 202/53/56 204/53/54 248/52/53
f 245/68/84 203/60/70 213/59/71 246/67/84
f 242/5/5 202/53/56 205/50/59 239/49/55
f 241/49/50 203/50/51 204/53/54 240/5/7
