# Blender 4.2.3 LTS
# www.blender.org
mtllib pantry-rightdoor.mtl
o kitchencabinet_rightside
v 0.044303 0.062145 0.695596
v 0.044303 2.438288 0.695596
v 0.044303 0.062145 0.535596
v 0.044303 2.438288 0.535596
v 0.043872 0.062150 0.539969
v 0.044271 2.438474 0.535281
v 0.903964 0.062522 0.535281
v 0.084303 0.006886 0.695596
v 0.084303 0.062145 0.735596
v 0.044303 0.062145 0.695596
v 0.084303 2.438288 0.735596
v 0.084303 2.493547 0.695596
v 0.044303 2.438288 0.695596
v 0.084303 0.006886 0.535596
v 0.044303 0.062145 0.535596
v 0.044303 2.438288 0.535596
v 0.084303 2.493547 0.535596
v 0.904303 0.006886 0.695596
v 0.944303 0.062145 0.695596
v 0.904303 0.062145 0.735596
v 0.904303 2.493547 0.695596
v 0.904303 2.438288 0.735596
v 0.944303 2.438288 0.695596
v 0.944303 0.062145 0.535596
v 0.904303 0.006886 0.535596
v 0.904303 2.493547 0.535596
v 0.944303 2.438288 0.535596
v 0.194303 1.301858 0.827499
v 0.140326 1.376428 0.772392
v 0.117968 1.301860 0.772392
v 0.140326 1.227292 0.772392
v 0.194303 1.196405 0.772392
v 0.248280 1.227292 0.772392
v 0.270639 1.301860 0.772392
v 0.248280 1.376428 0.772392
v 0.194303 1.407315 0.772392
v 0.152544 1.359546 0.809682
v 0.152544 1.359546 0.735102
v 0.135247 1.301858 0.809682
v 0.135247 1.301858 0.735102
v 0.152544 1.244169 0.809682
v 0.152544 1.244169 0.735102
v 0.194303 1.220274 0.809682
v 0.194303 1.220274 0.735102
v 0.236061 1.244169 0.809682
v 0.236061 1.244169 0.735102
v 0.253358 1.301858 0.809682
v 0.253358 1.301858 0.735102
v 0.236061 1.359546 0.809682
v 0.236061 1.359546 0.735102
v 0.194303 1.383442 0.809682
v 0.194303 1.383442 0.735102
v 0.904196 2.438648 0.535281
v 0.043872 0.062150 0.539969
v 0.044271 2.438474 0.535281
vn 0.3515 -0.2544 0.9010
vn 0.3515 0.2544 0.9010
vn -0.3515 0.2544 0.9010
vn -0.3515 -0.2544 0.9010
vn 0.3430 0.5989 -0.7236
vn -0.3416 0.5989 -0.7243
vn -0.4286 0.7953 0.4286
vn 0.4286 0.7953 0.4286
vn 1.0000 -0.0000 -0.0000
vn -0.4286 -0.7953 0.4286
vn -0.8003 -0.3516 0.4857
vn -0.8003 0.3516 0.4857
vn 0.4286 -0.7953 0.4286
vn 0.8003 -0.3516 0.4857
vn 0.8003 0.3516 0.4857
vn -0.3416 -0.5988 -0.7244
vn -0.7024 -0.5098 -0.4968
vn -0.7025 0.5099 -0.4965
vn 0.3429 -0.5989 -0.7237
vn 0.7024 -0.5084 -0.4982
vn 0.7053 0.5105 -0.4919
vn 0.2063 0.1493 0.9670
vn -0.0000 0.2134 0.9770
vn -0.0000 -0.0000 1.0000
vn 0.7155 0.5179 -0.4689
vn 0.9073 -0.0000 -0.4205
vn -0.9073 -0.0000 -0.4204
vn -0.7155 0.5179 -0.4689
vn -0.0000 -0.8422 -0.5391
vn -0.7155 -0.5179 -0.4688
vn 0.9073 -0.0000 0.4205
vn 0.7155 -0.5179 0.4689
vn -0.0000 0.8422 0.5392
vn 0.7155 0.5179 0.4689
vn -0.7155 -0.5179 0.4688
vn -0.9073 -0.0000 0.4204
vn -0.7155 0.5179 0.4689
vn -0.0000 -0.8422 0.5391
vn -0.0000 0.8422 -0.5392
vn -0.2063 0.1493 0.9670
vn 0.7155 -0.5179 -0.4689
vn 0.2063 -0.1493 0.9670
vn 0.2888 -0.0000 0.9574
vn -0.2063 -0.1493 0.9670
vn -0.0000 -0.2134 0.9770
vn -0.2888 -0.0000 0.9574
vn 0.0038 -0.0043 -1.0000
vn 0.0039 0.0043 -1.0000
vn -0.0078 -0.0000 1.0000
vn 0.0027 0.0010 1.0000
vn 0.0027 0.0018 1.0000
vt 0.667878 0.092808
vt 0.667878 0.136169
vt 0.657765 0.136169
vt 0.657765 0.092808
vt 0.667878 0.155130
vt 0.657765 0.155130
vt 0.668371 0.077183
vt 0.668371 0.120544
vt 0.657765 0.058223
vt 0.657765 0.061558
vt 0.657271 0.061558
vt 0.657765 0.167419
vt 0.657765 0.170755
vt 0.657271 0.167419
vt 0.667878 0.058223
vt 0.668371 0.061558
vt 0.667878 0.061558
vt 0.667878 0.170755
vt 0.667878 0.167419
vt 0.668371 0.167419
vt 0.657765 0.042598
vt 0.657271 0.045933
vt 0.657271 0.136169
vt 0.657271 0.092808
vt 0.657271 0.151794
vt 0.667878 0.042598
vt 0.668371 0.045933
vt 0.668371 0.151794
vt 0.668371 0.092808
vt 0.668371 0.136169
vt 0.798466 0.130479
vt 0.796875 0.131921
vt 0.796875 0.111372
vt 0.798466 0.099229
vt 0.798932 0.100248
vt 0.799784 0.080122
vt 0.799125 0.080122
vt 0.794625 0.080122
vt 0.793966 0.080122
vt 0.794818 0.100248
vt 0.795284 0.099229
vt 0.796875 0.059572
vt 0.796875 0.058131
vt 0.794818 0.059996
vt 0.795284 0.061015
vt 0.799784 0.095747
vt 0.799125 0.111372
vt 0.798466 0.092265
vt 0.798932 0.075621
vt 0.796875 0.117737
vt 0.798932 0.115873
vt 0.794818 0.075621
vt 0.795284 0.092265
vt 0.794625 0.111372
vt 0.793966 0.095747
vt 0.794818 0.115873
vt 0.795284 0.130479
vt 0.796875 0.073756
vt 0.796875 0.090822
vt 0.796875 0.100671
vt 0.796875 0.102112
vt 0.798466 0.061015
vt 0.798932 0.059996
vt 0.000000 0.000000
vt 0.971048 0.065509
vt 0.971048 0.130551
vt 0.953125 0.130551
vt 0.953125 0.065509
s 1
usemtl restaurant.089
f 20/1/1 22/2/2 11/3/3 9/4/4
f 26/5/5 17/6/6 12/6/7 21/5/8
f 24/7/9 27/8/9 23/8/9 19/7/9
f 8/9/10 9/10/4 10/11/11
f 11/12/3 12/13/7 13/14/12
f 18/15/13 19/16/14 20/17/1
f 21/18/8 22/19/2 23/20/15
f 14/21/16 8/21/10 10/22/11 15/22/17
f 9/4/4 11/3/3 13/23/12 10/24/11
f 12/6/7 17/6/6 16/25/18 13/25/12
f 18/26/13 25/26/19 24/27/20 19/27/14
f 26/5/5 21/5/8 23/28/15 27/28/21
f 22/2/2 20/1/1 19/29/14 23/30/15
f 8/9/10 18/15/13 20/17/1 9/10/4
f 21/18/8 12/13/7 11/12/3 22/19/2
f 14/21/16 25/26/19 18/26/13 8/21/10
f 49/31/22 51/32/23 28/33/24
f 50/34/25 35/35/25 34/36/26 48/37/26
f 40/38/27 30/39/27 29/40/28 38/41/28
f 44/42/29 32/43/29 31/44/30 42/45/30
f 34/46/31 47/47/31 45/48/32 33/49/32
f 36/50/33 51/32/33 49/31/34 35/51/34
f 31/52/35 41/53/35 39/54/36 30/55/36
f 29/56/37 37/57/37 51/32/33 36/50/33
f 30/55/36 39/54/36 37/57/37 29/56/37
f 32/58/38 43/59/38 41/53/35 31/52/35
f 52/60/39 36/61/39 35/35/25 50/34/25
f 51/32/23 37/57/40 28/33/24
f 46/62/41 33/63/41 32/43/29 44/42/29
f 33/49/32 45/48/32 43/59/38 32/58/38
f 38/41/28 29/40/28 36/61/39 52/60/39
f 45/48/42 47/47/43 28/33/24
f 35/51/34 49/31/34 47/47/31 34/46/31
f 42/45/30 31/44/30 30/39/27 40/38/27
f 48/37/26 34/36/26 33/63/41 46/62/41
f 41/53/44 43/59/45 28/33/24
f 39/54/46 41/53/44 28/33/24
f 43/59/45 45/48/42 28/33/24
f 37/57/40 39/54/46 28/33/24
f 47/47/43 49/31/22 28/33/24
f 7/64/47 24/27/20 25/26/19
f 15/22/17 7/64/47 25/26/19 14/21/16
f 27/28/21 53/64/48 26/5/5
f 26/5/5 53/64/48 16/25/18 17/6/6
f 53/64/49 7/64/49 24/7/49 27/28/49
f 7/65/50 53/66/50 55/67/51 54/68/51
l 1 3
l 1 2
l 2 4
l 6 5
